**ABCDEFGHIJKLMNOPQRSTUVWXYZabcdefghijklmnopqrstuvwxyz**************************
**PARASOLID !"#$%&'()*+,-./:;<=>?@[\]^_`{|}~0123456789**************************
**PART1;
MC=AMD64;
MC_MODEL=Intel64 Family 6 Model 58 Stepping 0, GenuineIntel;
MC_ID=unknown;
OS=Windows_NT;
OS_RELEASE=unknown;
FRU=Parasolid Version 31.1, build 284, 10- 9-2019;
APPL=SOLIDWORKS 2020-2019357;
SITE=;
USER=unknown;
FORMAT=text;
GUISE=transmit;
KEY=48B88390-CC3C-453F-87E8-369A2485F885;
FILE=48B88390-CC3C-453F-87E8-369A2485F885.x_t;
DATE=Mon Feb 15 06:39:28 2021;
**PART2;
SCH=SCH_3101284_31100;
USFLD_SIZE=0;
**PART3;
**END_OF_HEADER*****************************************************************
T51 : TRANSMIT FILE created by modeller version 310128423 SCH_3101284_31100_1300
6222 0 12 34 CCCCCCI4 mesh1006 0 I8 polyline1008 0 CCCCCCCDI5 owner1040 0 CCCCCC
I13 boundary_mesh1006 0 I17 boundary_polyline1008 0 CCCA16 index_map_offset0 0 1
 dA9 index_map82 0 A17 node_id_index_map82 0 A20 schema_embedding_map82 0 A5 chi
ld12 0 A14 lowest_node_id0 0 1 dA16 mesh_offset_data206 0 Z1 782 2 3 0 0 0 0 0 0
 1e3 1e-8 0 4 0 1 0 1 1 5 6 7 8 0 0 9 10 11 0 0 0 0 0 0 0 81 255 2 2 765 12 1 13
 0 0 0 0 14 70 11 CI9 list_type0 0 1 uI10 notransmit0 0 1 lCCCDCCDI12 finger_ind
ex0 0 1 dI12 finger_block1012 0 CZ3 0 4 T1 0 0 7 20 1 15 15 13 255 5 594 0 1 0 1
6 0 0 17 0 50 255 6 585 0 16 18 0 0 +0 0 2e-4 0 0 1 1 0 0 30 255 7 616 0 19 20 0
 0 +.0025 .0004364445921815 0 0 0 -1 29 255 8 620 0 21 22 0 .0025 .0004364445921
815 .00156604597633679 19 8 CCCCCCCA5 owner12 0 Z9 595 0 1 17 0 23 V0 16 255 10
 21 0 ?24 0 25 26 0 0 1 18 255 11 159 0 27 0 28 29 ?1 17 255 27 0 30 31 32 11 33
 34 0 35 -18 28 160 0 36 11 37 38 ?1 29 29 610 0 11 38 22 .0025 -.00056355540781
85 .00156604597633679 29 38 609 0 28 39 29 .0025 -.0005635554078185 -.0015660459
7633679 29 22 617 0 40 29 8 .0025 .0004364445921815 -.00156604597633679 18 40 38
6 0 41 42 21 22 ?1 17 41 0 30 32 31 40 36 43 0 44 -18 42 363 0 45 46 40 47 ?1 18
 21 388 0 32 40 48 8 ?1 17 32 0 30 27 41 21 49 19 0 50 -18 48 418 0 51 21 52 53
 ?1 17 51 0 54 55 56 48 57 58 0 59 +18 52 419 0 60 48 61 62 ?1 29 53 425 0 48 62
 63 -.00107 -.007925921479029 2e-4 29 62 426 0 52 47 53 -.00107 -.00056355540781
85 2e-4 29 63 448 0 61 53 64 -.00147 -.007925921479029 2e-4 18 61 438 0 65 52 66
 63 ?1 29 64 470 0 66 63 67 -.00147 -.0005635554078185 2e-4 18 66 458 0 68 61 69
 64 ?1 29 67 489 0 70 64 71 .00147 -.0005635554078185 2e-4 18 70 482 0 72 69 73
 67 ?1 29 71 488 0 69 67 74 .00147 -.007931203178759 2e-4 18 69 481 0 75 66 70 7
1 ?1 29 74 511 0 73 71 39 .00107 -.007931203178759 2e-4 18 73 501 0 76 70 77 74
 ?1 29 39 533 0 77 74 38 .00107 -.0005635554078185 2e-4 18 77 521 0 78 73 0 39 ?
1 17 78 0 79 80 81 77 72 82 0 83 +15 255 79 576 0 81 16 0 17 80 0 79 84 78 73 83
 85 0 86 -17 81 0 79 78 84 70 75 87 0 0 -17 72 0 88 89 90 70 78 82 0 91 -16 82 5
77 0 ?78 92 0 93 0 0 1 17 83 0 94 95 86 77 80 85 0 90 +15 94 516 0 83 96 0 17 95
 0 94 97 83 98 90 99 0 100 +17 86 0 94 83 97 73 45 101 0 0 -16 85 518 0 ?83 99 9
2 102 0 0 1 17 90 0 88 72 103 77 95 99 0 0 -15 88 253 0 89 104 105 17 103 0 88 9
0 89 98 106 107 0 0 +16 99 517 0 ?95 108 85 109 0 0 1 16 108 498 0 ?76 101 99 11
0 0 0 1 30 109 529 0 99 110 102 0 -.00107 -.0005635554078185 -2e-4 0 0 1 30 110
 506 0 108 111 109 0 -.00107 -.007931203178759 2e-4 1 0 0 30 102 528 0 85 109 11
2 0 +.00107 -.0002189536191744 2e-4 0 1 0 30 112 568 0 92 102 93 0 -0 -.00056355
54078185 2e-4 1 0 0 16 92 556 0 ?68 85 82 112 0 0 1 30 93 589 0 82 112 26 0 -0 -
.0005635554078185 2e-4 1 0 0 31 255 26 598 0 10 93 113 0 -0 .0004364445921815 0
 0 -1 0 0 0 -1 .0025 31 113 600 0 114 26 115 0 -0 .0004364445921815 0 0 -1 0 0 0
 -1 .00295 16 114 51 0 ?50 25 116 113 0 0 1 31 115 606 0 116 113 20 0 +0 .006846
715615556 0 0 -1 0 -1 0 0 .002329767150112005 16 116 123 0 ?117 114 118 115 0 0
 1 31 20 608 0 118 115 7 0 -0 -.0005635554078185 0 0 -1 0 0 0 -1 .00295 16 118 1
56 0 ?119 116 120 20 0 0 1 17 119 0 121 33 36 11 122 118 0 0 +16 120 255 0 ?123
 118 107 124 0 0 1 17 123 0 125 126 127 128 129 120 0 0 +16 107 259 0 ?103 120 1
30 131 0 0 1 30 124 285 0 120 132 131 0 -0 -.0005635554078185 -2e-4 1 0 0 31 132
 240 0 1 133 124 134 +0 .005160466051686 0 0 -1 0 -1 0 0 .002875978540496 30 131
 281 0 107 124 135 0 -0 -.0005635554078185 -2e-4 1 0 0 30 135 276 0 130 131 136
 0 -.0025 -.0005635554078185 0 0 0 -1 16 130 263 0 ?35 107 137 135 0 0 1 30 136
 349 0 137 135 138 0 +-.00107 0 -2e-4 0 1 0 16 137 337 0 ?139 130 140 136 0 0 1
 30 138 348 0 140 136 141 0 +0 -.007925921479029 -2e-4 1 0 0 16 140 338 0 ?142 1
37 143 138 0 0 1 30 141 347 0 143 138 144 0 --.00147 0 -2e-4 0 1 0 16 143 339 0
 ?145 140 146 141 0 0 1 30 144 370 0 146 141 147 0 +.00147 0 -2e-4 0 1 0 16 146
 358 0 ?148 143 149 144 0 0 1 30 147 369 0 149 144 150 0 +0 -.007931203178759 -2
e-4 1 0 0 16 149 359 0 ?151 146 152 147 0 0 1 30 150 368 0 152 147 153 0 -.00107
 0 -2e-4 0 1 0 16 152 360 0 ?97 149 34 150 0 0 1 30 153 401 0 43 150 154 0 -.002
5 -.0005635554078185 -.001566045976337 0 1 0 16 43 381 0 ?36 34 19 153 0 0 1 30
 154 405 0 34 153 155 0 +.0025 -.0005635554078185 .001566045976337 0 1 0 16 34 3
79 0 ?33 152 43 154 0 0 1 30 155 424 0 156 154 157 0 --.00107 -.0005635554078185
 -2e-4 0 0 -1 16 156 412 0 ?56 19 158 155 0 0 1 30 157 422 0 158 155 159 0 +-.00
107 -.007925921479029 -2e-4 0 0 -1 16 158 414 0 ?55 156 58 157 0 0 1 30 159 421
 0 58 157 160 0 --.00107 -.007925921479029 2e-4 0 1 0 16 58 415 0 ?51 158 161 15
9 0 0 1 30 160 444 0 161 159 162 0 +-.00147 -.007925921479029 -2e-4 0 0 -1 16 16
1 434 0 ?163 58 164 160 0 0 1 30 162 443 0 164 160 165 0 --.00147 -.007925921479
029 2e-4 1 0 0 16 164 435 0 ?65 161 166 162 0 0 1 30 165 466 0 166 162 167 0 --.
00147 -.0005635554078185 -2e-4 0 0 1 16 166 454 0 ?168 164 169 165 0 0 1 30 167
 465 0 169 165 170 0 +-.00147 -.0002546814715622 2e-4 0 1 0 16 169 455 0 ?171 16
6 172 167 0 0 1 30 170 487 0 172 167 173 0 -.00147 -.0005635554078185 -2e-4 0 0
 -1 16 172 475 0 ?91 169 174 170 0 0 1 30 173 485 0 174 170 175 0 +.00147 -.0079
31203178759 -2e-4 0 0 -1 16 174 477 0 ?176 172 87 173 0 0 1 30 175 484 0 87 173
 111 0 -.00147 -.007931203178759 2e-4 0 1 0 16 87 478 0 ?75 174 101 175 0 0 1 30
 111 507 0 101 175 110 0 +.00107 -.007931203178759 -2e-4 0 0 -1 16 101 497 0 ?45
 87 108 111 0 0 1 17 45 0 177 151 76 42 86 101 0 178 +15 177 495 0 45 179 0 17 1
51 0 177 180 45 46 178 149 0 0 +17 76 0 177 45 180 73 84 108 0 80 +17 178 0 181
 100 182 42 151 149 0 97 -15 181 357 0 178 183 0 17 100 0 181 106 178 98 97 152
 0 103 -17 182 0 181 178 106 46 148 146 0 151 -17 97 0 94 86 95 42 100 152 0 0 +
17 106 0 181 182 100 184 103 107 0 0 -18 46 362 0 176 185 42 186 ?1 17 148 0 187
 91 176 184 182 146 0 106 +15 187 474 0 148 188 0 17 91 0 187 75 148 70 89 172 0
 81 +17 176 0 187 148 75 46 180 174 0 182 +18 184 269 0 89 128 98 189 ?1 17 89 0
 88 103 72 184 91 172 0 148 -18 128 268 0 168 37 184 190 ?1 18 98 272 0 95 184 1
91 192 ?1 29 189 291 0 184 190 192 .00147 -.0005635554078185 -2e-4 29 190 293 0
 128 193 189 -.00147 -.0005635554078185 -2e-4 29 192 289 0 98 189 194 .00107 -.0
005635554078185 -2e-4 29 194 353 0 191 192 195 -.00107 -.007925921479029 -2e-4 1
8 191 341 0 55 98 185 194 ?1 29 195 352 0 185 194 186 -.00147 -.007925921479029
 -2e-4 18 185 342 0 163 191 46 195 ?1 29 186 374 0 46 195 47 .00147 -.0079312031
78759 -2e-4 29 47 373 0 42 186 62 .00107 -.007931203178759 -2e-4 17 163 0 196 14
2 65 185 197 161 0 198 +15 196 432 0 163 199 0 17 142 0 196 200 163 191 198 140
 0 0 +17 65 0 196 163 200 61 59 164 0 201 +17 197 0 202 171 145 61 163 161 0 0 -
17 198 0 203 204 205 185 142 140 0 145 -15 203 336 0 198 206 0 17 204 0 203 129
 198 128 145 143 0 123 -17 205 0 203 198 129 191 139 137 0 142 -17 145 0 202 197
 168 185 204 143 0 0 +15 202 453 0 171 207 0 17 168 0 202 145 171 128 126 166 0
 204 +17 171 0 202 168 197 66 201 169 0 126 +17 126 0 125 60 123 66 168 166 0 0
 -15 125 252 0 127 104 88 17 60 0 125 127 126 52 68 92 0 56 -17 127 0 125 123 60
 37 56 156 0 139 -17 68 0 208 201 57 66 60 92 0 171 +17 56 0 54 51 139 52 127 15
6 0 57 +15 54 411 0 139 209 0 17 139 0 54 56 55 37 205 137 0 129 +17 57 0 208 68
 59 52 51 58 0 0 -15 208 555 0 57 210 0 17 59 0 208 57 201 48 65 164 0 200 -17 2
01 0 208 59 68 61 171 169 0 197 -17 200 0 196 65 142 48 55 158 0 0 -17 55 0 54 1
39 51 191 200 158 0 205 +14 255 210 553 211 1e-8 96 16 208 5 18 +0 0 16 96 23 81
 1 211 766 212 210 213 0 0 214 215 14 96 514 214 1e-8 179 210 94 5 216 +0 0 210
 179 23 14 16 574 217 1e-8 210 0 79 5 6 +0 0 0 210 23 50 18 564 0 210 216 6 0 +0
 0 2e-4 0 0 1 1 0 0 13 23 3 0 0 0 0 0 0 9 218 14 218 2 219 1e-8 0 220 221 5 222
 -0 0 220 0 23 81 1 219 769 212 218 223 0 217 224 225 14 220 46 224 1e-8 218 226
 227 5 228 +0 0 226 218 23 15 221 623 0 229 218 230 51 255 222 6 0 218 0 228 0 +
0 0 0 0 -1 0 .0025 0 0 -1 50 228 60 0 220 222 231 0 +0 .0004364445921815 0 0 -1
 0 0 0 -1 68 255 231 128 0 226 228 232 0 +133 0 .006321177199599 0 0 -1 0 ????-1
 0 0 ?14 226 117 233 1e-8 220 234 235 5 231 -0 0 234 220 23 51 232 162 0 234 231
 236 0 +0 0 0 0 -1 0 .00295 0 0 -1 31 133 133 0 1 237 132 238 +-.001603669326959
 .006321177199599 0 0 0 -1 -1 0 0 .000896330673041 31 237 115 0 25 0 133 0 +0 .0
06321177199599 0 0 -1 0 0 0 -1 .0025 141 255 238 231 238 238 133 16 25 14 0 ?239
 10 114 237 0 0 1 17 239 0 235 239 239 0 229 25 0 0 +15 235 625 0 239 226 240 17
 229 0 221 229 229 0 239 25 0 0 -15 240 119 0 241 226 0 17 241 0 240 241 241 0 1
17 116 0 0 -17 117 0 242 117 117 0 241 116 0 0 +15 242 627 0 117 243 0 14 243 22
4 244 1e-8 234 104 242 5 236 -0 0 104 234 23 81 1 244 772 212 243 245 0 233 246
 247 14 234 151 246 1e-8 226 243 121 5 232 +0 0 243 226 23 14 104 250 248 1e-8 2
43 206 125 5 249 +0 0 206 243 23 68 236 233 0 243 232 249 0 +132 0 .005160466051
686 0 -1 0 0 -.002875978540496 .005160466051686 0 .002875978540496 .005160466051
686 -3522057914034905e-34 0 3.141592653589795 0 0 -1 ?50 249 275 0 104 236 250 0
 +0 -.0005635554078185 0 0 -1 0 0 0 -1 50 250 345 0 206 249 251 0 +0 0 -2e-4 0 0
 1 1 0 0 14 206 334 252 1e-8 104 183 203 5 250 -0 0 183 104 23 50 251 366 0 183
 250 253 0 +0 0 -2e-4 0 0 1 1 0 0 14 183 355 254 1e-8 206 255 181 5 251 -0 0 255
 206 23 50 253 389 0 255 251 256 0 +.0025 -.0005635554078185 .002175705867646 -1
 0 0 0 0 1 14 255 376 257 1e-8 183 209 30 5 253 -0 0 209 183 23 50 256 420 0 209
 253 258 0 +-.00107 -.007925921479029 -2e-4 1 0 0 0 0 -1 14 209 409 259 1e-8 255
 199 54 5 256 +0 0 199 255 23 50 258 441 0 199 256 260 0 +-.00147 -.007925921479
029 -2e-4 0 -1 0 0 0 -1 14 199 430 261 1e-8 209 207 196 5 258 +0 0 207 209 23 50
 260 462 0 207 258 262 0 +-.00147 -.0002546814715622 -2e-4 -1 0 0 0 0 1 14 207 4
51 263 1e-8 199 188 202 5 260 +0 0 188 199 23 50 262 483 0 188 260 264 0 +.00147
 -.007931203178759 -2e-4 1 0 0 0 0 -1 14 188 472 265 1e-8 207 179 187 5 262 +0 0
 179 207 23 50 264 504 0 179 262 216 0 +.00107 -.007931203178759 -2e-4 0 -1 0 0
 0 -1 14 179 493 266 1e-8 188 96 177 5 264 +0 0 96 188 23 50 216 525 0 96 264 18
 0 +.00107 -.0002189536191744 -2e-4 -1 0 0 0 0 1 81 1 266 782 212 179 267 0 265
 0 268 80 255 1 212 269 270 9000 1 1 1 1 1 1 1 1 0 FFFFTFTFFFFFFF1 81 1 267 716
 271 179 0 266 272 273 274 81 1 265 781 212 188 273 0 263 266 275 82 255 1 268 -
331546507 81 1 273 717 271 188 0 265 267 276 277 81 1 263 780 212 207 276 0 261
 265 278 82 1 275 -331743115 81 1 276 718 271 207 0 263 273 279 280 81 1 261 779
 212 199 279 0 259 263 281 82 1 278 -331612043 81 1 279 719 271 199 0 261 276 28
2 283 81 1 259 778 212 209 282 0 257 261 284 82 1 281 -329908107 81 1 282 720 27
1 209 0 259 279 285 286 81 1 257 777 212 255 285 0 254 259 287 82 1 284 -3297770
35 81 1 285 721 271 255 0 257 282 288 289 81 1 254 776 212 183 288 0 252 257 290
 82 1 287 -343211915 81 1 288 722 271 183 0 254 285 291 292 81 1 252 775 212 206
 291 0 248 254 293 82 1 290 -336068491 81 1 291 723 271 206 0 252 288 294 295 81
 1 248 774 212 104 294 0 246 252 296 82 1 293 -336199563 81 1 294 724 271 104 0
 248 291 245 297 81 1 246 773 212 234 298 0 244 248 299 82 1 296 -334495627 81 1
 298 726 271 234 0 246 245 300 301 82 1 299 -340918155 80 1 271 0 302 8001 0 0 0
 0 3 5 0 0 0 FFFFTFTFFFFFFF2 81 1 245 725 271 243 0 244 294 298 303 81 1 300 727
 271 226 0 233 298 304 305 83 255 3 301 .00784313725490196 .01176470588235294 1
 81 1 233 771 212 226 300 0 224 244 306 81 1 304 728 271 220 0 224 300 223 307 8
3 3 305 .00784313725490196 .01176470588235294 1 81 1 224 770 212 220 304 0 219 2
33 308 81 1 223 729 271 218 0 219 304 0 309 83 3 307 .00784313725490196 .0117647
0588235294 1 83 3 309 .00784313725490196 .01176470588235294 1 82 1 308 -34000065
1 82 1 306 -334954379 83 3 303 .00784313725490196 .01176470588235294 1 79 255 15
 302 SDL/TYSA_COLOUR83 3 297 .00784313725490196 .01176470588235294 1 83 3 295 .7
92156862745098 .819607843137255 .933333333333333 83 3 292 .792156862745098 .8196
07843137255 .933333333333333 83 3 289 .00784313725490196 .01176470588235294 1 83
 3 286 .792156862745098 .819607843137255 .933333333333333 83 3 283 .792156862745
098 .819607843137255 .933333333333333 83 3 280 .792156862745098 .819607843137255
 .933333333333333 83 3 277 .792156862745098 .819607843137255 .933333333333333 81
 1 272 715 271 96 0 214 213 267 310 83 3 274 .792156862745098 .819607843137255 .
933333333333333 81 1 214 767 212 96 272 0 211 217 311 81 1 213 714 271 210 0 211
 312 272 313 83 3 310 .792156862745098 .819607843137255 .933333333333333 81 1 31
2 713 271 16 0 217 0 213 314 83 3 313 .792156862745098 .819607843137255 .9333333
33333333 81 1 217 768 212 16 312 0 214 219 315 83 3 314 .792156862745098 .819607
843137255 .933333333333333 82 1 315 -330956683 82 1 311 -331218827 79 14 270 SWE
ntUnchanged15 30 378 0 31 255 0 17 31 0 30 41 27 28 35 130 0 122 -17 35 0 105 12
2 122 11 31 130 0 119 +17 122 0 105 35 35 28 119 118 0 0 -15 105 254 0 122 104 0
 15 121 153 0 33 234 0 17 33 0 121 44 119 21 27 34 0 0 +17 44 0 121 36 33 40 50
 114 0 49 -17 36 0 121 119 44 28 41 43 0 31 +17 50 0 227 49 49 21 44 114 0 33 +1
7 49 0 227 50 50 40 32 19 0 0 +15 227 48 0 50 220 316 16 19 382 0 ?49 43 156 7 0
 0 1 15 316 49 0 24 220 0 17 24 0 316 24 24 0 317 10 0 0 +17 317 0 230 317 317 0
 24 10 0 0 -15 230 8 0 317 218 0 82 1 247 -334626699 82 1 225 -335871883 82 1 21
5 -331087755 18 37 265 0 127 28 128 193 ?1 17 129 0 203 205 204 37 123 120 0 0 -
29 193 295 0 37 0 190 -.00107 -.0005635554078185 -2e-4 17 75 0 187 176 91 69 81
 87 0 84 +17 180 0 177 76 151 69 176 174 0 0 -17 84 0 79 81 80 69 76 108 0 180 -
141 134 236 134 134 132 19 17 5 0 1 0 9 5 S0 74 4 CI16 index_map_offset0 0 1 dCC
Z20 15 7 0 0 318 319 320 266 13 223 2 0 0 0 0 0 0 0 0 0 0 0 0 0 81 2 318 629 321
 1 0 319 0 0 0 322 81 2 319 630 323 1 318 320 0 0 0 324 81 2 320 694 325 1 319 1
3 0 0 0 0 81 1 13 712 326 1 320 2 0 0 327 80 1 326 328 329 9000 1 1 1 1 1 1 1 1
 0 FFTFFFFFFFFFFF1 82 1 327 39512852 79 10 329 BODY_MATCH80 2 325 330 331 9000 0
 0 0 0 3 5 0 0 0 FFTFFFFFFFFFFF9 1 79 16 331 BODY_RECIPE_200180 2 323 332 333 90
00 0 0 0 0 3 5 0 0 0 FFTFFFFFFFFFFT9 1 82 1 324 103 79 19 333 ENT_TIME_STAMP_200
180 2 321 334 335 9000 0 0 0 0 3 5 0 0 0 FFTFFFFFFFFFFF9 1 82 1 322 26 79 30 335
 LAST_BODY_MODIFYING_FEATURE_ID80 2 12 336 337 9000 0 0 0 0 3 5 0 0 0 FFTFFFFFFF
FFFF9 1 82 1 14 101 79 12 337 ATOM_ID_20011 0 
