**ABCDEFGHIJKLMNOPQRSTUVWXYZabcdefghijklmnopqrstuvwxyz**************************
**PARASOLID !"#$%&'()*+,-./:;<=>?@[\]^_`{|}~0123456789**************************
**PART1;
MC=x86;
MC_MODEL=x86 Family 6 Model 15 Stepping 6, GenuineIntel;
MC_ID=unknown;
OS=Windows_NT;
OS_RELEASE=unknown;
FRU=Parasolid Version 19.1, build 261,  8- 1-2008;
APPL=SolidWorks 2009-2008251;
SITE=;
USER=unknown;
FORMAT=text;
GUISE=transmit;
KEY=33D13532-C0F9-4C00-9636-5BC6C757DD67;
FILE=33D13532-C0F9-4C00-9636-5BC6C757DD67.x_t;
DATE=Fri Nov 07 08:17:28 2008;
**PART2;
SCH=SCH_1901261_19008;
USFLD_SIZE=0;
**PART3;
**END_OF_HEADER*****************************************************************
T51 : TRANSMIT FILE created by modeller version 190126117 SCH_1201000_121030 12
 1 514 0 2 0 0 0 0 1e3 1e-8 0 3 0 1 0 1 1 4 5 6 7 8 9 10 70 2 0 1 0 0 4 2 20 4 1
1 11 1 T13 4 41 0 1 0 12 0 0 13 0 50 5 82 0 12 14 0 0 +0 0 -489842541528951e-34
 0 0 -1 -1 0 0 31 6 86 0 9 15 0 0 +0 0 -979685083057902e-34 0 0 -1 -1 0 0 .00255
 29 7 238 0 10 16 0 32e-5 -.00159 -489842541528951e-34 19 8 45 0 1 13 0 17 V16 9
 64 0 ?18 0 19 6 0 0 1 18 10 236 0 20 0 21 7 ?1 17 20 0 22 23 24 10 25 26 0 27 +
18 21 232 0 24 10 28 16 ?1 17 24 0 22 20 29 21 30 31 0 32 -18 28 225 0 29 21 33
 34 ?1 29 16 234 0 21 34 7 -32e-5 -.00159 -489842541528951e-34 29 34 227 0 28 35
 16 -32e-5 -95e-5 -489842541528951e-34 29 35 130 0 33 36 34 32e-5 95e-5 -4898425
41528951e-34 18 33 128 0 37 28 38 35 ?1 29 36 126 0 38 39 35 -32e-5 95e-5 -48984
2541528951e-34 18 38 124 0 40 33 41 36 ?1 29 39 119 0 41 42 36 -32e-5 .00159 -48
9842541528951e-34 18 41 117 0 43 38 44 39 ?1 29 42 216 0 45 46 39 32e-5 .00159 0
 18 45 166 0 47 48 49 42 ?1 29 46 220 0 44 50 42 32e-5 .00159 -.005 18 44 170 0
 51 41 52 46 ?1 29 50 221 0 52 53 46 -32e-5 .00159 -.005 18 52 173 0 54 44 55 50
 ?1 29 53 222 0 55 56 50 -32e-5 95e-5 -.005 18 55 167 0 57 52 48 53 ?1 29 56 223
 0 48 58 53 32e-5 95e-5 -.005 18 48 172 0 59 55 45 56 ?1 29 58 324 0 60 61 56 32
e-5 -95e-5 0 18 60 274 0 23 62 0 58 ?1 29 61 328 0 49 63 58 32e-5 -95e-5 -.005 1
8 49 278 0 64 45 65 61 ?1 29 63 329 0 65 66 61 -32e-5 -95e-5 -.005 18 65 281 0 6
7 49 68 63 ?1 29 66 330 0 68 69 63 -32e-5 -.00159 -.005 18 68 275 0 70 65 62 66
 ?1 29 69 331 0 62 0 66 32e-5 -.00159 -.005 18 62 280 0 71 68 60 69 ?1 17 71 0 7
2 73 74 62 75 76 0 77 +15 72 300 0 71 78 0 17 73 0 72 67 71 68 79 80 0 0 -17 74
 0 72 71 67 49 81 82 0 0 -17 75 0 83 84 77 49 71 76 0 74 -16 76 262 0 ?71 80 85
 86 0 0 1 17 77 0 83 75 87 62 27 88 0 79 -15 83 285 0 87 89 0 17 87 0 83 77 84 1
0 23 90 0 0 +17 27 0 91 25 79 10 77 88 0 87 +16 88 253 0 ?27 92 93 94 0 0 1 17 7
9 0 91 27 70 62 73 80 0 0 +15 91 289 0 25 95 0 17 70 0 91 79 25 68 32 93 0 96 -1
6 80 250 0 ?79 97 76 98 0 0 1 16 97 265 0 ?67 82 80 99 0 0 1 30 98 322 0 80 86 9
9 0 +-32e-5 -.00159 -.005 1 -33881317890172e-29 0 30 86 323 0 76 0 98 0 +32e-5 -
95e-5 -.005 25410988417629e-29 -1 0 30 99 321 0 97 98 100 0 +-32e-5 -.00159 -.00
5 0 1 0 30 100 320 0 82 99 101 0 +32e-5 -95e-5 -.005 -1 -33881317890172e-29 0 16
 82 258 0 ?81 102 97 100 0 0 1 30 101 319 0 90 100 103 0 +32e-5 -95e-5 0 2541098
8417629e-29 -1 0 16 90 246 0 ?87 26 0 101 0 0 1 30 103 318 0 26 101 104 0 +-32e-
5 -.00159 0 1 -33881317890172e-29 0 16 26 271 0 ?20 31 90 103 0 0 1 30 104 317 0
 31 103 105 0 +-32e-5 -.00159 0 0 1 0 16 31 254 0 ?30 85 26 104 0 0 1 30 105 316
 0 85 104 106 0 +32e-5 -95e-5 0 -1 -33881317890172e-29 0 16 85 268 0 ?29 76 31 1
05 0 0 1 30 106 315 0 102 105 107 0 +32e-5 -95e-5 -.005 0 0 1 16 102 249 0 ?84 1
08 82 106 0 0 1 30 107 314 0 108 106 109 0 +-32e-5 -95e-5 -.005 0 0 1 16 108 261
 0 ?110 93 102 107 0 0 1 30 109 313 0 93 107 94 0 +-32e-5 -.00159 -.005 0 0 1 16
 93 257 0 ?32 88 108 109 0 0 1 30 94 312 0 88 109 111 0 +32e-5 -.00159 -.005 0 0
 1 30 111 215 0 112 94 113 0 +32e-5 .00159 -.005 33881317890172e-29 -1 0 16 112
 154 0 ?59 114 115 111 0 0 1 30 113 214 0 114 111 116 0 +-32e-5 95e-5 -.005 1 33
881317890172e-29 0 16 114 142 0 ?117 118 112 113 0 0 1 30 116 213 0 118 113 119
 0 +-32e-5 95e-5 -.005 -8470329472543e-29 1 0 16 118 157 0 ?54 120 114 116 0 0 1
 30 119 212 0 120 116 121 0 +32e-5 .00159 -.005 -1 0 0 16 120 150 0 ?122 123 118
 119 0 0 1 30 121 211 0 92 119 124 0 +32e-5 .00159 0 33881317890172e-29 -1 0 16
 92 138 0 ?125 126 88 121 0 0 1 30 124 210 0 126 121 127 0 +-32e-5 95e-5 0 1 338
81317890172e-29 0 16 126 163 0 ?37 128 92 124 0 0 1 30 127 209 0 128 124 129 0 +
-32e-5 95e-5 0 -8470329472543e-29 1 0 16 128 146 0 ?130 115 126 127 0 0 1 30 129
 208 0 115 127 131 0 +32e-5 .00159 0 -1 0 0 16 115 160 0 ?43 112 128 129 0 0 1 3
0 131 207 0 123 129 132 0 +32e-5 .00159 -.005 0 0 1 16 123 141 0 ?133 134 120 13
1 0 0 1 30 132 206 0 134 131 135 0 +-32e-5 .00159 -.005 0 0 1 16 134 153 0 ?136
 137 123 132 0 0 1 30 135 205 0 137 132 138 0 +-32e-5 95e-5 -.005 0 0 1 16 137 1
49 0 ?139 140 134 135 0 0 1 30 138 204 0 140 135 141 0 +32e-5 95e-5 -.005 0 0 1
 16 140 145 0 ?142 143 137 138 0 0 1 31 141 83 0 143 138 144 0 +0 0 .00655 0 0 -
1 -1 0 0 .00205 16 143 49 0 ?145 146 140 141 0 0 1 31 144 84 0 146 141 15 0 +0 0
 .001 0 0 -1 -1 0 0 .00205 16 146 54 0 ?147 19 143 144 0 0 1 31 15 85 0 19 144 6
 0 +0 0 .001 0 0 -1 -1 0 0 .00255 16 19 59 0 ?148 9 146 15 0 0 1 17 148 0 149 14
8 148 0 150 19 0 0 +15 149 100 0 148 151 152 17 150 0 153 150 150 0 148 19 0 0 -
15 153 61 0 150 154 0 14 154 62 155 ?156 151 157 4 158 +0 0 156 151 17 81 1 155
 500 159 154 160 0 0 161 162 14 156 57 161 ?163 154 164 4 165 +0 0 163 154 17 14
 151 67 166 ?154 12 149 4 14 +0 0 154 12 17 15 157 99 0 147 154 153 50 158 80 0
 154 165 14 0 +0 .00255 .001 0 0 1 1 0 0 13 17 44 0 0 0 0 0 0 8 12 14 12 243 167
 ?151 0 168 4 5 +0 0 151 0 17 81 1 167 503 159 12 169 0 166 170 171 15 168 118 0
 37 12 172 17 37 0 168 47 40 33 173 126 0 142 +15 172 101 0 18 12 22 17 18 0 172
 18 18 0 174 9 0 0 +15 22 226 0 20 12 0 17 174 0 152 174 174 0 18 9 0 0 -15 152
 66 0 174 151 0 17 47 0 168 43 37 45 125 92 0 133 -17 40 0 168 37 43 38 130 128
 0 139 -17 173 0 175 57 142 38 37 126 0 0 -17 142 0 175 173 117 33 176 140 0 125
 +15 175 181 0 173 177 0 17 117 0 175 142 57 48 178 114 0 0 +17 176 0 179 180 12
5 48 142 140 0 117 -17 125 0 179 176 133 33 47 92 0 0 +15 179 177 0 125 181 0 17
 133 0 179 125 180 45 51 123 0 182 +17 180 0 179 133 176 44 59 112 0 183 -17 51
 0 184 122 182 44 133 123 0 180 -17 182 0 184 51 136 45 43 115 0 0 -15 184 189 0
 182 185 0 17 136 0 184 182 122 41 186 134 0 130 +17 43 0 168 40 47 41 182 115 0
 136 +17 122 0 184 136 51 52 183 120 0 0 +17 186 0 187 188 130 52 136 134 0 122
 -17 130 0 187 186 139 41 40 128 0 0 +15 187 185 0 130 189 0 17 139 0 187 130 18
8 38 57 137 0 173 +17 188 0 187 139 186 55 54 118 0 178 -17 57 0 175 117 173 55
 139 137 0 188 -17 54 0 190 183 178 52 188 118 0 186 +17 178 0 190 54 59 55 117
 114 0 0 -15 190 192 0 59 191 0 17 59 0 190 178 183 48 180 112 0 176 +17 183 0 1
90 59 54 44 122 120 0 0 -14 191 190 170 ?89 185 190 4 192 -0 0 89 185 17 81 1 17
0 504 159 191 193 0 167 194 195 14 89 282 194 ?95 191 83 4 196 -0 0 95 191 17 14
 185 186 197 ?191 189 184 4 198 +0 0 191 189 17 50 192 203 0 191 196 198 0 +32e-
5 95e-5 -.005 0 0 1 1 0 0 50 196 306 0 89 199 192 0 +32e-5 -95e-5 -.005 -1 -2541
0988417629e-29 0 25410988417629e-29 -1 0 50 198 201 0 185 192 200 0 +32e-5 .0015
9 -.005 0 1 0 0 0 1 50 200 200 0 189 198 201 0 +-32e-5 95e-5 -.005 1 84703294725
43e-29 0 -8470329472543e-29 1 0 14 189 182 202 ?185 177 187 4 200 -0 0 185 177 1
7 50 201 199 0 177 200 203 0 +-32e-5 95e-5 -.005 33881317890172e-29 -1 0 1 33881
317890172e-29 0 14 177 178 204 ?189 181 175 4 201 +0 0 189 181 17 50 203 198 0 1
81 201 205 0 +32e-5 .00159 -.005 -1 -33881317890172e-29 0 33881317890172e-29 -1
 0 14 181 174 206 ?177 163 179 4 203 -0 0 177 163 17 53 205 78 0 163 203 165 0 +
0 802117161753657e-33 .00655 .00205 0 0 -1 0 1 0 14 163 52 207 ?181 156 208 4 20
5 +0 0 181 156 17 51 165 79 0 156 205 158 0 +0 0 0 0 0 -1 .00205 -1 0 0 81 1 207
 510 159 163 209 0 206 210 211 15 208 51 0 212 163 0 17 212 0 208 212 212 0 145
 143 0 0 -17 145 0 164 145 145 0 212 143 0 0 +15 164 98 0 145 156 213 15 213 56
 0 214 156 0 17 214 0 213 214 214 0 147 146 0 0 -17 147 0 157 147 147 0 214 146
 0 0 +80 1 159 215 216 9000 1 1 1 1 1 1 1 1 0 FFFFTFTFFFFFFF1 81 1 209 459 217 1
63 0 207 218 219 220 81 1 206 509 159 181 219 0 204 207 221 81 1 210 511 159 95
 222 0 207 223 224 82 1 211 -1198456695 14 95 286 210 ?225 89 91 4 199 +0 0 225
 89 17 81 1 222 466 217 95 0 210 226 227 228 81 1 223 512 159 225 227 0 210 229
 230 82 1 224 -1152384885 14 225 290 223 ?231 95 232 4 233 -0 0 231 95 17 81 1 2
27 467 217 225 0 223 222 234 235 81 1 229 513 159 231 234 0 223 236 237 82 1 230
 -1152712565 14 231 294 229 ?78 225 238 4 239 +0 0 78 225 17 81 1 234 468 217 23
1 0 229 227 240 241 81 1 236 514 159 78 240 0 229 0 242 82 1 237 -1152843637 14
 78 298 236 ?0 231 72 4 243 +0 0 0 231 17 81 1 240 469 217 78 0 236 234 0 244 82
 1 242 -1159397237 80 1 217 0 245 8001 0 0 0 0 3 5 0 0 0 FFFFTFTFFFFFFF2 83 3 24
4 .752941176470588 .752941176470588 .752941176470588 79 15 245 SDL/TYSA_COLOUR50
 243 311 0 78 0 239 0 +32e-5 -95e-5 -.005 0 0 -1 -1 0 0 50 239 309 0 231 243 233
 0 +32e-5 -95e-5 -.005 -33881317890172e-29 1 0 -1 -33881317890172e-29 0 50 233 3
08 0 225 239 199 0 +-32e-5 -.00159 -.005 1 0 0 0 0 -1 50 199 307 0 95 233 196 0
 +-32e-5 -.00159 -.005 -33881317890172e-29 -1 0 1 -33881317890172e-29 0 83 3 241
 .752941176470588 .752941176470588 .752941176470588 15 238 297 0 246 231 0 17 24
6 0 238 64 110 60 29 85 0 0 -17 64 0 238 81 246 49 84 102 0 75 -17 110 0 238 246
 81 28 247 108 0 30 +17 29 0 22 24 23 28 246 85 0 110 +17 23 0 22 29 20 60 87 90
 0 84 -17 84 0 83 87 75 60 64 102 0 246 +17 81 0 238 110 64 65 74 82 0 0 +17 247
 0 232 96 30 65 110 108 0 81 -17 30 0 232 247 32 28 24 31 0 0 +15 232 293 0 30 2
25 0 17 32 0 232 30 96 21 70 93 0 25 +17 96 0 232 32 247 68 67 97 0 73 -17 25 0
 91 70 27 21 20 26 0 0 -17 67 0 72 74 73 65 96 97 0 247 +83 3 235 .7529411764705
88 .752941176470588 .752941176470588 81 1 226 465 217 89 0 194 193 222 248 83 3
 228 .752941176470588 .752941176470588 .752941176470588 81 1 194 505 159 89 226
 0 170 197 249 81 1 193 464 217 191 0 170 250 226 251 83 3 248 .752941176470588
 .752941176470588 .752941176470588 81 1 250 463 217 185 0 197 252 193 253 83 3 2
51 .752941176470588 .752941176470588 .752941176470588 81 1 197 506 159 185 250 0
 194 202 254 81 1 252 462 217 189 0 202 255 250 256 83 3 253 .752941176470588 .7
52941176470588 .752941176470588 81 1 202 507 159 189 252 0 197 204 257 81 1 255
 461 217 177 0 204 219 252 258 83 3 256 .752941176470588 .752941176470588 .75294
1176470588 81 1 204 508 159 177 255 0 202 206 259 81 1 219 460 217 181 0 206 209
 255 260 83 3 258 .752941176470588 .752941176470588 .752941176470588 83 3 260 .7
52941176470588 .752941176470588 .752941176470588 82 1 259 -1164115829 82 1 257 -
1164443509 82 1 254 -1164574581 82 1 249 -1152188277 82 1 221 -1163919221 81 1 2
18 458 217 156 0 161 160 209 261 83 3 220 1 0 0 81 1 161 501 159 156 218 0 155 1
66 262 81 1 160 457 217 154 0 155 263 218 264 83 3 261 1 0 0 81 1 263 456 217 15
1 0 166 169 160 265 83 3 264 1 0 0 81 1 166 502 159 151 263 0 161 167 266 81 1 1
69 455 217 12 0 167 0 263 267 83 3 265 1 0 0 83 3 267 1 0 0 82 1 266 -1196687223
 82 1 262 -1197866871 79 14 216 SWEntUnchanged82 1 195 -1171128181 82 1 171 -114
5438069 51 14 81 0 151 158 5 0 +0 0 0 0 0 -1 .00255 -1 0 0 82 1 162 -1197277047
 19 13 40 0 1 0 8 4 S74 20 11 2 0 236 240 0 0 0 0 0 0 0 0 0 0 0 0 0 0 0 0 0 0 1
 0 
