  0
SECTION
  2
HEADER
  9
$ACADVER
  1
AC1009
  9
$INSBASE
 10
0.0
 20
0.0
 30
0.0
  9
$EXTMIN
 10
0.0
 20
0.0
 30
0.0
  9
$EXTMAX
 10
212.3609116524559965
 20
202.7876092987063998
 30
0.0
  9
$LIMMIN
 10
0.0
 20
0.0
  9
$LIMMAX
 10
212.3609116524559965
 20
202.7876092987063998
  9
$ORTHOMODE
 70
     0
  9
$REGENMODE
 70
     1
  9
$FILLMODE
 70
     1
  9
$QTEXTMODE
 70
     0
  9
$MIRRTEXT
 70
     0
  9
$DRAGMODE
 70
     2
  9
$LTSCALE
 40
1.0
  9
$OSMODE
 70
     0
  9
$ATTMODE
 70
     1
  9
$TEXTSIZE
 40
0.2
  9
$TRACEWID
 40
0.05
  9
$TEXTSTYLE
  7
STANDARD
  9
$CLAYER
  8
0
  9
$CELTYPE
  6
BYLAYER
  9
$CECOLOR
 62
   256
  9
$DIMSCALE
 40
1.0
  9
$DIMASZ
 40
0.18
  9
$DIMEXO
 40
0.0625
  9
$DIMDLI
 40
0.38
  9
$DIMRND
 40
0.0
  9
$DIMDLE
 40
0.0
  9
$DIMEXE
 40
0.18
  9
$DIMTP
 40
0.0
  9
$DIMTM
 40
0.0
  9
$DIMTXT
 40
0.18
  9
$DIMCEN
 40
0.09
  9
$DIMTSZ
 40
0.0
  9
$DIMTOL
 70
     0
  9
$DIMLIM
 70
     0
  9
$DIMTIH
 70
     1
  9
$DIMTOH
 70
     1
  9
$DIMSE1
 70
     0
  9
$DIMSE2
 70
     0
  9
$DIMTAD
 70
     0
  9
$DIMZIN
 70
     0
  9
$DIMBLK
  1

  9
$DIMASO
 70
     1
  9
$DIMSHO
 70
     1
  9
$DIMPOST
  1

  9
$DIMAPOST
  1

  9
$DIMALT
 70
     0
  9
$DIMALTD
 70
     2
  9
$DIMALTF
 40
25.3999999999999986
  9
$DIMLFAC
 40
1.0
  9
$DIMTOFL
 70
     0
  9
$DIMTVP
 40
0.0
  9
$DIMTIX
 70
     0
  9
$DIMSOXD
 70
     0
  9
$DIMSAH
 70
     0
  9
$DIMBLK1
  1

  9
$DIMBLK2
  1

  9
$DIMSTYLE
  2
STANDARD
  9
$DIMCLRD
 70
     0
  9
$DIMCLRE
 70
     0
  9
$DIMCLRT
 70
     0
  9
$DIMTFAC
 40
1.0
  9
$DIMGAP
 40
0.09
  9
$LUNITS
 70
     2
  9
$LUPREC
 70
     4
  9
$SKETCHINC
 40
0.1
  9
$FILLETRAD
 40
0.0
  9
$AUNITS
 70
     0
  9
$AUPREC
 70
     0
  9
$MENU
  1
.
  9
$ELEVATION
 40
0.0
  9
$PELEVATION
 40
0.0
  9
$THICKNESS
 40
0.0
  9
$LIMCHECK
 70
     0
  9
$BLIPMODE
 70
     0
  9
$CHAMFERA
 40
0.0
  9
$CHAMFERB
 40
0.0
  9
$SKPOLY
 70
     0
  9
$TDCREATE
 40
2459970.6208333331160247
  9
$TDUPDATE
 40
2459970.6208333331160247
  9
$TDINDWG
 40
0.0000115741
  9
$TDUSRTIMER
 40
0.0000115741
  9
$USRTIMER
 70
     1
  9
$ANGBASE
 50
0.0
  9
$ANGDIR
 70
     0
  9
$PDMODE
 70
     0
  9
$PDSIZE
 40
0.0
  9
$PLINEWID
 40
0.0
  9
$COORDS
 70
     0
  9
$SPLFRAME
 70
     0
  9
$SPLINETYPE
 70
     6
  9
$SPLINESEGS
 70
     8
  9
$ATTDIA
 70
     1
  9
$ATTREQ
 70
     1
  9
$HANDLING
 70
     1
  9
$HANDSEED
  5
355
  9
$SURFTAB1
 70
     6
  9
$SURFTAB2
 70
     6
  9
$SURFTYPE
 70
     6
  9
$SURFU
 70
     6
  9
$SURFV
 70
     6
  9
$UCSNAME
  2

  9
$UCSORG
 10
0.0
 20
0.0
 30
0.0
  9
$UCSXDIR
 10
1.0
 20
0.0
 30
0.0
  9
$UCSYDIR
 10
0.0
 20
1.0
 30
0.0
  9
$PUCSNAME
  2

  9
$PUCSORG
 10
0.0
 20
0.0
 30
0.0
  9
$PUCSXDIR
 10
1.0
 20
0.0
 30
0.0
  9
$PUCSYDIR
 10
0.0
 20
1.0
 30
0.0
  9
$USERI1
 70
     0
  9
$USERI2
 70
     0
  9
$USERI3
 70
     0
  9
$USERI4
 70
     0
  9
$USERI5
 70
     0
  9
$USERR1
 40
0.0
  9
$USERR2
 40
0.0
  9
$USERR3
 40
0.0
  9
$USERR4
 40
0.0
  9
$USERR5
 40
0.0
  9
$WORLDVIEW
 70
     1
  9
$SHADEDGE
 70
     3
  9
$SHADEDIF
 70
    70
  9
$TILEMODE
 70
     1
  9
$MAXACTVP
 70
    64
  9
$PLIMCHECK
 70
     0
  9
$PEXTMIN
 10
0.0
 20
0.0
 30
0.0
  9
$PEXTMAX
 10
212.3609116524559965
 20
202.7876092987063998
 30
0.0
  9
$PLIMMIN
 10
0.0
 20
0.0
  9
$PLIMMAX
 10
212.3609116524559965
 20
202.7876092987063998
  9
$UNITMODE
 70
     0
  9
$VISRETAIN
 70
     1
  9
$PLINEGEN
 70
     0
  9
$PSLTSCALE
 70
     1
  0
ENDSEC
  0
SECTION
  2
TABLES
  0
TABLE
  2
VPORT
 70
     1
  0
VPORT
  2
*ACTIVE
 70
     0
 10
0.0
 20
0.0
 11
1.0
 21
1.0
 12
92.8011791874967145
 22
66.0000000000000142
 13
0.0
 23
0.0
 14
1.0
 24
1.0
 15
0.0
 25
0.0
 16
0.0
 26
0.0
 36
1.0
 17
0.0
 27
0.0
 37
0.0
 40
202.7876092987063998
 41
1.047208517260283
 42
50.0
 43
0.0
 44
0.0
 50
0.0
 51
0.0
 71
     0
 72
   100
 73
     1
 74
     1
 75
     0
 76
     0
 77
     0
 78
     0
  0
ENDTAB
  0
TABLE
  2
LTYPE
 70
    59
  0
LTYPE
  2
CONTINUOUS
 70
     0
  3
Solid line
 72
    65
 73
     0
 40
0.0
  0
LTYPE
  2
BY_STANDARD
 70
     0
  3
By Standard ____________    ____    ____   _
 72
    65
 73
     6
 40
1.2402999999999991
 49
0.6614
 49
-0.0827
 49
0.1654
 49
-0.0827
 49
0.1654
 49
-0.0827
  0
LTYPE
  2
CHAIN
 70
     0
  3
Chain ____ _ ____ _ ____ _ ____ _ ____ _ ____
 72
    65
 73
     4
 40
0.7087
 49
0.4724000000000001
 49
-0.0591
 49
0.1181
 49
-0.0591
  0
LTYPE
  2
DASH_DOT
 70
     0
  3
Dash dot __ . __ . __ . __ . __ . __ . __ . __
 72
    65
 73
     4
 40
0.37
 49
0.24
 49
-0.06
 49
0.01
 49
-0.06
  0
LTYPE
  2
DOUBLE_DASH_DOT
 70
     0
  3
Double-Dash Dot __ __ . __ __ . __ __ . __ _
 72
    65
 73
     6
 40
0.4398
 49
0.24
 49
-0.06
 49
0.0098
 49
-0.06
 49
0.01
 49
-0.06
  0
LTYPE
  2
DASH_TRIPLE_DOT
 70
     0
  3
Dash Triple-Dot _ . . . _ . . . _ . . . _
 72
    65
 73
     8
 40
0.51
 49
0.24
 49
-0.06
 49
0.01
 49
-0.06
 49
0.01
 49
-0.06
 49
0.01
 49
-0.06
  0
LTYPE
  2
DASHED
 70
     0
  3
Dashed __ __ __ __ __ __ __ __ __ __ __ __ __ _
 72
    65
 73
     2
 40
0.2067
 49
0.1654
 49
-0.0413
  0
LTYPE
  2
DASH_DOUBLE_DOT
 70
     0
  3
Dash Double-Dot __ . . __ . . __ . . __ . .
 72
    65
 73
     6
 40
0.4398
 49
0.24
 49
-0.06
 49
0.0098
 49
-0.06
 49
0.01
 49
-0.06
  0
LTYPE
  2
DASHED_SPACE
 70
     0
  3
Dashed Space __ __ __ __ __ __ __ __ __ __ __ _
 72
    65
 73
     2
 40
0.2067
 49
0.1654
 49
-0.0413
  0
LTYPE
  2
DOTTED
 70
     0
  3
Dotted . . . . . . . . . . . . . . . . . . . . 
 72
    65
 73
     2
 40
0.0482
 49
0.0069
 49
-0.0413
  0
LTYPE
  2
DOUBLE_DASH_CHAIN
 70
     0
  3
Double-Dash Chain ______  __  __  ______  __  _
 72
    65
 73
     6
 40
1.2402999999999991
 49
0.6614
 49
-0.0827
 49
0.1654
 49
-0.0827
 49
0.1654
 49
-0.0827
  0
LTYPE
  2
DOUBLE_DASH_DOUBLE_DOT
 70
     0
  3
Double-Dash Double-dot _ _ . . _ _ . . _
 72
    65
 73
     8
 40
0.7400000000000001
 49
0.24
 49
-0.06
 49
0.24
 49
-0.06
 49
0.01
 49
-0.06
 49
0.01
 49
-0.06
  0
LTYPE
  2
DOUBLE_DASH_TRIPLE_DOT
 70
     0
  3
Double Dash Triple Dot __ __ . . . __ __ . .
 72
    65
 73
    10
 40
0.8100000000000001
 49
0.24
 49
-0.06
 49
0.24
 49
-0.06
 49
0.01
 49
-0.06
 49
0.01
 49
-0.06
 49
0.01
 49
-0.06
  0
LTYPE
  2
LONG_DASH_DOTTED
 70
     0
  3
Long Dash Dotted ____ . ____ . ____ . ____ . _
 72
    65
 73
     4
 40
0.3543
 49
0.2362
 49
-0.0295
 49
0.0591
 49
-0.0295
  0
LTYPE
  2
LONG_DASH_DOUBLE_DOT
 70
     0
  3
Long Dash Double Dot ________  .  .  ________  
 72
    65
 73
     6
 40
0.6799999999999999
 49
0.48
 49
-0.06
 49
0.01
 49
-0.06
 49
0.01
 49
-0.06
  0
LTYPE
  2
LONG_DASH_TRIPLE_DOT
 70
     0
  3
Long Dash Triple Dot ____ ... ____ ... ____
 72
    65
 73
     8
 40
0.3689
 49
0.2362
 49
-0.0295
 49
0.0049
 49
-0.0295
 49
0.0049
 49
-0.0295
 49
0.0049
 49
-0.0295
  0
LTYPE
  2
BORDER
 70
     0
  3
Border __ __ . __ __ . __ __ . __ __ . __ __ .
 72
    65
 73
     6
 40
1.75
 49
0.5
 49
-0.25
 49
0.5
 49
-0.25
 49
0.0
 49
-0.25
  0
LTYPE
  2
BORDER2
 70
     0
  3
Border (.5x) __.__.__.__.__.__.__.__.__.__.__.
 72
    65
 73
     6
 40
0.875
 49
0.25
 49
-0.125
 49
0.25
 49
-0.125
 49
0.0
 49
-0.125
  0
LTYPE
  2
BORDERX2
 70
     0
  3
Border (2x) ____  ____  .  ____  ____  .  ___
 72
    65
 73
     6
 40
3.5
 49
1.0
 49
-0.5
 49
1.0
 49
-0.5
 49
0.0
 49
-0.5
  0
LTYPE
  2
CENTER
 70
     0
  3
Center ____ _ ____ _ ____ _ ____ _ ____ _ ____
 72
    65
 73
     4
 40
2.0
 49
1.25
 49
-0.25
 49
0.25
 49
-0.25
  0
LTYPE
  2
CENTER2
 70
     0
  3
Center (.5x) ___ _ ___ _ ___ _ ___ _ ___ _ ___
 72
    65
 73
     4
 40
1.125
 49
0.75
 49
-0.125
 49
0.125
 49
-0.125
  0
LTYPE
  2
CENTERX2
 70
     0
  3
Center (2x) ________  __  ________  __  _____
 72
    65
 73
     4
 40
4.0
 49
2.5
 49
-0.5
 49
0.5
 49
-0.5
  0
LTYPE
  2
DASHDOT2
 70
     0
  3
Dash dot (.5x) _._._._._._._._._._._._._._._.
 72
    65
 73
     4
 40
0.5
 49
0.25
 49
-0.125
 49
0.0
 49
-0.125
  0
LTYPE
  2
DASHDOTX2
 70
     0
  3
Dash dot (2x) ____  .  ____  .  ____  .  ___
 72
    65
 73
     4
 40
2.0
 49
1.0
 49
-0.5
 49
0.0
 49
-0.5
  0
LTYPE
  2
DASHED2
 70
     0
  3
Dashed (.5x) _ _ _ _ _ _ _ _ _ _ _ _ _ _ _ _ _
 72
    65
 73
     2
 40
0.375
 49
0.25
 49
-0.125
  0
LTYPE
  2
DASHEDX2
 70
     0
  3
Dashed (2x) ____  ____  ____  ____  ____  ___
 72
    65
 73
     2
 40
1.5
 49
1.0
 49
-0.5
  0
LTYPE
  2
DIVIDE
 70
     0
  3
Divide ____ . . ____ . . ____ . . ____ . . ____
 72
    65
 73
     6
 40
1.25
 49
0.5
 49
-0.25
 49
0.0
 49
-0.25
 49
0.0
 49
-0.25
  0
LTYPE
  2
DIVIDE2
 70
     0
  3
Divide (.5x) __..__..__..__..__..__..__..__.._
 72
    65
 73
     6
 40
0.625
 49
0.25
 49
-0.125
 49
0.0
 49
-0.125
 49
0.0
 49
-0.125
  0
LTYPE
  2
DIVIDEX2
 70
     0
  3
Divide (2x) ________  .  .  ________  .  .  _
 72
    65
 73
     6
 40
2.5
 49
1.0
 49
-0.5
 49
0.0
 49
-0.5
 49
0.0
 49
-0.5
  0
LTYPE
  2
DOT
 70
     0
  3
Dot . . . . . . . . . . . . . . . . . . . . . .
 72
    65
 73
     2
 40
0.25
 49
0.0
 49
-0.25
  0
LTYPE
  2
DOT2
 70
     0
  3
Dot (.5x) .....................................
 72
    65
 73
     2
 40
0.125
 49
0.0
 49
-0.125
  0
LTYPE
  2
DOTX2
 70
     0
  3
Dot (2x) .  .  .  .  .  .  .  .  .  .  .  .  . 
 72
    65
 73
     2
 40
0.5
 49
0.0
 49
-0.5
  0
LTYPE
  2
HIDDEN
 70
     0
  3
Hidden __ __ __ __ __ __ __ __ __ __ __ __ __ _
 72
    65
 73
     2
 40
0.375
 49
0.25
 49
-0.125
  0
LTYPE
  2
HIDDEN2
 70
     0
  3
Hidden (.5x) _ _ _ _ _ _ _ _ _ _ _ _ _ _ _ _ _
 72
    65
 73
     2
 40
0.1875
 49
0.125
 49
-0.0625
  0
LTYPE
  2
HIDDENX2
 70
     0
  3
Hidden (2x) ____ ____ ____ ____ ____ ____ ____
 72
    65
 73
     2
 40
0.75
 49
0.5
 49
-0.25
  0
LTYPE
  2
PHANTOM
 70
     0
  3
Phantom ______  __  __  ______  __  __  ______
 72
    65
 73
     6
 40
2.5
 49
1.25
 49
-0.25
 49
0.25
 49
-0.25
 49
0.25
 49
-0.25
  0
LTYPE
  2
PHANTOM2
 70
     0
  3
Phantom (.5x) ___ _ _ ___ _ _ ___ _ _ ___ _ _
 72
    65
 73
     6
 40
1.25
 49
0.625
 49
-0.125
 49
0.125
 49
-0.125
 49
0.125
 49
-0.125
  0
LTYPE
  2
PHANTOMX2
 70
     0
  3
Phantom (2x) ____________    ____    ____   _
 72
    65
 73
     6
 40
5.0
 49
2.5
 49
-0.5
 49
0.5
 49
-0.5
 49
0.5
 49
-0.5
  0
LTYPE
  2
ACAD_ISO02W100
 70
     0
  3
ISO dash __ __ __ __ __ __ __ __ __ __ __ __ __
 72
    65
 73
     2
 40
0.59
 49
0.47
 49
-0.12
  0
LTYPE
  2
ACAD_ISO03W100
 70
     0
  3
ISO dash space __    __    __    __    __    __
 72
    65
 73
     2
 40
1.179999999999999
 49
0.47
 49
-0.71
  0
LTYPE
  2
ACAD_ISO04W100
 70
     0
  3
ISO long-dash dot ____ . ____ . ____ . ____ . _
 72
    65
 73
     4
 40
1.179999999999999
 49
0.9399999999999998
 49
-0.12
 49
0.0
 49
-0.12
  0
LTYPE
  2
ACAD_ISO05W100
 70
     0
  3
ISO long-dash double-dot ____ .. ____ .. ____ .
 72
    65
 73
     6
 40
1.2999999999999989
 49
0.9399999999999998
 49
-0.12
 49
0.0
 49
-0.12
 49
0.0
 49
-0.12
  0
LTYPE
  2
ACAD_ISO06W100
 70
     0
  3
ISO long-dash triple-dot ____ ... ____ ... ____
 72
    65
 73
     8
 40
1.419999999999999
 49
0.9399999999999998
 49
-0.12
 49
0.0
 49
-0.12
 49
0.0
 49
-0.12
 49
0.0
 49
-0.12
  0
LTYPE
  2
ACAD_ISO07W100
 70
     0
  3
ISO dot . . . . . . . . . . . . . . . . . . . .
 72
    65
 73
     2
 40
0.12
 49
0.0
 49
-0.12
  0
LTYPE
  2
ACAD_ISO08W100
 70
     0
  3
ISO long-dash short-dash ____ __ ____ __ ____ _
 72
    65
 73
     4
 40
0.95
 49
0.47
 49
-0.12
 49
0.24
 49
-0.12
  0
LTYPE
  2
ACAD_ISO09W100
 70
     0
  3
ISO long-dash double-short-dash ____ __ __ ____
 72
    65
 73
     6
 40
1.3100000000000001
 49
0.47
 49
-0.12
 49
0.24
 49
-0.12
 49
0.24
 49
-0.12
  0
LTYPE
  2
ACAD_ISO10W100
 70
     0
  3
ISO dash dot __ . __ . __ . __ . __ . __ . __ .
 72
    65
 73
     4
 40
0.71
 49
0.47
 49
-0.12
 49
0.0
 49
-0.12
  0
LTYPE
  2
ACAD_ISO11W100
 70
     0
  3
ISO double-dash dot __ __ . __ __ . __ __ . __ 
 72
    65
 73
     6
 40
1.2999999999999989
 49
0.47
 49
-0.12
 49
0.47
 49
-0.12
 49
0.0
 49
-0.12
  0
LTYPE
  2
ACAD_ISO12W100
 70
     0
  3
ISO dash double-dot __ . . __ . . __ . . __ . .
 72
    65
 73
     6
 40
0.8299999999999998
 49
0.47
 49
-0.12
 49
0.0
 49
-0.12
 49
0.0
 49
-0.12
  0
LTYPE
  2
ACAD_ISO13W100
 70
     0
  3
ISO double-dash double-dot __ __ . . __ __ . . 
 72
    65
 73
     8
 40
1.419999999999999
 49
0.47
 49
-0.12
 49
0.47
 49
-0.12
 49
0.0
 49
-0.12
 49
0.0
 49
-0.12
  0
LTYPE
  2
ACAD_ISO14W100
 70
     0
  3
ISO dash triple-dot __ . . . __ . . . __ . . . 
 72
    65
 73
     8
 40
0.95
 49
0.47
 49
-0.12
 49
0.0
 49
-0.12
 49
0.0
 49
-0.12
 49
0.0
 49
-0.12
  0
LTYPE
  2
ACAD_ISO15W100
 70
     0
  3
ISO double-dash triple-dot __ __ . . . __ __ . 
 72
    65
 73
    10
 40
1.5399999999999989
 49
0.47
 49
-0.12
 49
0.47
 49
-0.12
 49
0.0
 49
-0.12
 49
0.0
 49
-0.12
 49
0.0
 49
-0.12
  0
LTYPE
  2
FENCELINE1
 70
     0
  3
Fenceline circle ----0-----0----0-----0----0---
 72
    65
 73
     4
 40
1.45
 49
0.25
 49
-0.1
 49
-0.1
 49
1.0
  0
LTYPE
  2
FENCELINE2
 70
     0
  3
Fenceline square ----[]-----[]----[]-----[]----
 72
    65
 73
     4
 40
1.45
 49
0.25
 49
-0.1
 49
-0.1
 49
1.0
  0
LTYPE
  2
TRACKS
 70
     0
  3
Tracks -|-|-|-|-|-|-|-|-|-|-|-|-|-|-|-|-|-|-|-|
 72
    65
 73
     2
 40
0.3
 49
0.15
 49
0.15
  0
LTYPE
  2
BATTING
 70
     0
  3
Batting SSSSSSSSSSSSSSSSSSSSSSSSSSSSSSSSSSSSSSS
 72
    65
 73
     4
 40
0.4001000000000001
 49
0.0001
 49
-0.1
 49
-0.2
 49
-0.1
  0
LTYPE
  2
HOT_WATER_SUPPLY
 70
     0
  3
Hot water supply ---- HW ---- HW ---- HW ----
 72
    65
 73
     3
 40
0.9
 49
0.5
 49
-0.2
 49
-0.2
  0
LTYPE
  2
GAS_LINE
 70
     0
  3
Gas line ----GAS----GAS----GAS----GAS----GAS---
 72
    65
 73
     3
 40
0.95
 49
0.5
 49
-0.2
 49
-0.25
  0
LTYPE
  2
ZIGZAG
 70
     0
  3
Zig zag /\/\/\/\/\/\/\/\/\/\/\/\/\/\/\/\/\/\/\/
 72
    65
 73
     4
 40
0.8001000000000001
 49
0.0001
 49
-0.2
 49
-0.4
 49
-0.2
  0
ENDTAB
  0
TABLE
  2
LAYER
 70
     1
  0
LAYER
  2
0
 70
     0
 62
     7
  6
CONTINUOUS
  0
ENDTAB
  0
TABLE
  2
STYLE
 70
     5
  0
STYLE
  2
STANDARD
 70
     0
 40
0.0
 41
1.0
 50
0.0
 71
     0
 42
0.2
  3
txt
  4

  0
STYLE
  2
ANNOTATIVE
 70
     0
 40
0.0
 41
1.0
 50
0.0
 71
     0
 42
0.2
  3
txt
  4

  0
STYLE
  2

 70
     1
 40
0.0
 41
1.0
 50
0.0
 71
     0
 42
0.2
  3
ltypeshp.shx
  4

  0
STYLE
  2
ѕо€снительный_текст__ANSI_
 70
     0
 40
0.0
 41
1.0
 50
0.0
 71
     0
 42
0.2
  3
txt.shx
  4
bigfont.shx
  0
STYLE
  2
Ёскизный_текст__ANSI__-_3D
 70
     0
 40
0.0
 41
1.0
 50
0.0
 71
     0
 42
0.2
  3
txt.shx
  4
bigfont.shx
  0
ENDTAB
  0
TABLE
  2
VIEW
 70
     0
  0
ENDTAB
  0
TABLE
  2
UCS
 70
     0
  0
ENDTAB
  0
TABLE
  2
APPID
 70
     3
  0
APPID
  2
ACAD
 70
     0
  0
APPID
  2
ACADANNOTATIVE
 70
     0
  0
APPID
  2
ACAD_MLEADERVER
 70
     0
  0
ENDTAB
  0
TABLE
  2
DIMSTYLE
 70
     2
  0
DIMSTYLE
  2
STANDARD
 70
     0
  3

  4

  5

  6

  7

 40
1.0
 41
0.18
 42
0.0625
 43
0.38
 44
0.18
 45
0.0
 46
0.0
 47
0.0
 48
0.0
140
0.18
141
0.09
142
0.0
143
25.3999999999999986
144
1.0
145
0.0
146
1.0
147
0.09
 71
     0
 72
     0
 73
     1
 74
     1
 75
     0
 76
     0
 77
     0
 78
     0
170
     0
171
     2
172
     0
173
     0
174
     0
175
     0
176
     0
177
     0
178
     0
  0
DIMSTYLE
  2
ANNOTATIVE
 70
     0
  3

  4

  5

  6

  7

 40
1.0
 41
0.18
 42
0.0625
 43
0.38
 44
0.18
 45
0.0
 46
0.0
 47
0.0
 48
0.0
140
0.18
141
0.09
142
0.0
143
25.3999999999999986
144
1.0
145
0.0
146
1.0
147
0.09
 71
     0
 72
     0
 73
     1
 74
     1
 75
     0
 76
     0
 77
     0
 78
     0
170
     0
171
     2
172
     0
173
     0
174
     0
175
     0
176
     0
177
     0
178
     0
  0
ENDTAB
  0
ENDSEC
  0
SECTION
  2
BLOCKS
  0
BLOCK
  8
0
  2
$MODEL_SPACE
 70
     0
 10
0.0
 20
0.0
 30
0.0
  3
$MODEL_SPACE
  1

  0
ENDBLK
  5
72
  8
0
  0
BLOCK
 67
     1
  8
0
  2
$PAPER_SPACE
 70
     0
 10
0.0
 20
0.0
 30
0.0
  3
$PAPER_SPACE
  1

  0
ENDBLK
  5
6E
 67
     1
  8
0
  0
ENDSEC
  0
SECTION
  2
ENTITIES
  0
POLYLINE
  5
B8
  8
0
 66
     1
 10
0.0
 20
0.0
 30
0.0
 70
     1
  0
VERTEX
  5
B9
  8
0
 10
160.5300000000000011
 20
129.0
 30
0.0
 42
0.4142135623730951
  0
VERTEX
  5
BA
  8
0
 10
157.5300000000000011
 20
126.0
 30
0.0
  0
VERTEX
  5
BC
  8
0
 10
157.5300000000000011
 20
5.9999999999999956
 30
0.0
 42
0.4142135623730948
  0
VERTEX
  5
BD
  8
0
 10
160.5300000000000011
 20
3.0
 30
0.0
  0
VERTEX
  5
BE
  8
0
 10
178.5300000000000011
 20
3.0
 30
0.0
  0
VERTEX
  5
BF
  8
0
 10
178.5300000000000011
 20
-14.0
 30
0.0
 42
-0.4142135623730951
  0
VERTEX
  5
C0
  8
0
 10
175.5300000000000011
 20
-17.0
 30
0.0
  0
VERTEX
  5
C1
  8
0
 10
10.0
 20
-17.0
 30
0.0
 42
-0.4142135623730951
  0
VERTEX
  5
C2
  8
0
 10
7.0
 20
-14.0
 30
0.0
  0
VERTEX
  5
C3
  8
0
 10
7.0
 20
2.9999999999999978
 30
0.0
  0
VERTEX
  5
C4
  8
0
 10
25.0
 20
3.0
 30
0.0
 42
0.4142135623730951
  0
VERTEX
  5
C5
  8
0
 10
28.0
 20
6.0000000000000053
 30
0.0
  0
VERTEX
  5
C6
  8
0
 10
28.0
 20
126.0
 30
0.0
 42
0.4142135623730951
  0
VERTEX
  5
C7
  8
0
 10
25.0
 20
129.0
 30
0.0
  0
VERTEX
  5
C8
  8
0
 10
6.999999999999992
 20
129.0
 30
0.0
  0
VERTEX
  5
C9
  8
0
 10
7.0
 20
146.0
 30
0.0
 42
-0.4142135623730951
  0
VERTEX
  5
CA
  8
0
 10
10.0
 20
149.0
 30
0.0
  0
VERTEX
  5
CB
  8
0
 10
175.5300000000000011
 20
149.0
 30
0.0
 42
-0.4142135623730951
  0
VERTEX
  5
CC
  8
0
 10
178.5300000000000011
 20
146.0
 30
0.0
  0
VERTEX
  5
CD
  8
0
 10
178.5300000000000011
 20
129.0
 30
0.0
  0
SEQEND
  5
BB
  8
0
  0
POLYLINE
  5
CF
  8
0
 66
     1
 10
0.0
 20
0.0
 30
0.0
 70
     1
  0
VERTEX
  5
D0
  8
0
 10
181.5299999999998875
 20
42.0219999999999914
 30
0.0
  0
VERTEX
  5
D1
  8
0
 10
181.5299999999998875
 20
23.0
 30
0.0
  0
VERTEX
  5
D3
  8
0
 10
169.5300000000000011
 20
23.0
 30
0.0
  0
VERTEX
  5
D4
  8
0
 10
169.5300000000000011
 20
42.0219999999999914
 30
0.0
  0
SEQEND
  5
D2
  8
0
  0
POLYLINE
  5
D5
  8
0
 66
     1
 10
0.0
 20
0.0
 30
0.0
 70
     1
  0
VERTEX
  5
D6
  8
0
 10
181.5299999999998875
 20
109.0
 30
0.0
  0
VERTEX
  5
D7
  8
0
 10
181.5299999999998875
 20
89.9779999999999944
 30
0.0
  0
VERTEX
  5
D9
  8
0
 10
169.5300000000000011
 20
89.9779999999999944
 30
0.0
  0
VERTEX
  5
DA
  8
0
 10
169.5300000000000011
 20
109.0
 30
0.0
  0
SEQEND
  5
D8
  8
0
  0
LINE
  5
DB
  8
0
 10
0.0299999999999998
 20
140.7247572177089978
 30
0.0
 11
0.0299999999999998
 21
-8.7247572177089872
 31
0.0
  0
POLYLINE
  8
0
  5
14D
  66
     1
 10
0.00000
 20
0.00000
 30
0.00000
  70
     8
  0
VERTEX
  8
0
  5
14E
 10
0.0300000
 20
-8.72476
 30
0.00000
  70
    32
  0
VERTEX
  8
0
  5
14F
 10
0.0600315
 20
-8.95128
 30
0.00000
  70
    32
  0
VERTEX
  8
0
  5
150
 10
0.0896034
 20
-9.17566
 30
0.00000
  70
    32
  0
VERTEX
  8
0
  5
151
 10
0.118748
 20
-9.39791
 30
0.00000
  70
    32
  0
VERTEX
  8
0
  5
152
 10
0.147499
 20
-9.61804
 30
0.00000
  70
    32
  0
VERTEX
  8
0
  5
153
 10
0.175888
 20
-9.83605
 30
0.00000
  70
    32
  0
VERTEX
  8
0
  5
154
 10
0.203948
 20
-10.0520
 30
0.00000
  70
    32
  0
VERTEX
  8
0
  5
155
 10
0.231712
 20
-10.2658
 30
0.00000
  70
    32
  0
VERTEX
  8
0
  5
156
 10
0.259212
 20
-10.4775
 30
0.00000
  70
    32
  0
VERTEX
  8
0
  5
157
 10
0.286481
 20
-10.6871
 30
0.00000
  70
    32
  0
VERTEX
  8
0
  5
158
 10
0.313552
 20
-10.8947
 30
0.00000
  70
    32
  0
VERTEX
  8
0
  5
159
 10
0.340458
 20
-11.1001
 30
0.00000
  70
    32
  0
VERTEX
  8
0
  5
15A
 10
0.367230
 20
-11.3036
 30
0.00000
  70
    32
  0
VERTEX
  8
0
  5
15B
 10
0.393902
 20
-11.5049
 30
0.00000
  70
    32
  0
VERTEX
  8
0
  5
15C
 10
0.420507
 20
-11.7043
 30
0.00000
  70
    32
  0
VERTEX
  8
0
  5
15D
 10
0.447076
 20
-11.9016
 30
0.00000
  70
    32
  0
VERTEX
  8
0
  5
15E
 10
0.473643
 20
-12.0968
 30
0.00000
  70
    32
  0
VERTEX
  8
0
  5
15F
 10
0.500241
 20
-12.2901
 30
0.00000
  70
    32
  0
VERTEX
  8
0
  5
160
 10
0.526901
 20
-12.4813
 30
0.00000
  70
    32
  0
VERTEX
  8
0
  5
161
 10
0.553657
 20
-12.6705
 30
0.00000
  70
    32
  0
VERTEX
  8
0
  5
162
 10
0.580542
 20
-12.8577
 30
0.00000
  70
    32
  0
VERTEX
  8
0
  5
163
 10
0.607587
 20
-13.0430
 30
0.00000
  70
    32
  0
VERTEX
  8
0
  5
164
 10
0.634826
 20
-13.2262
 30
0.00000
  70
    32
  0
VERTEX
  8
0
  5
165
 10
0.662292
 20
-13.4075
 30
0.00000
  70
    32
  0
VERTEX
  8
0
  5
166
 10
0.690016
 20
-13.5868
 30
0.00000
  70
    32
  0
VERTEX
  8
0
  5
167
 10
0.718032
 20
-13.7642
 30
0.00000
  70
    32
  0
VERTEX
  8
0
  5
168
 10
0.746373
 20
-13.9396
 30
0.00000
  70
    32
  0
VERTEX
  8
0
  5
169
 10
0.775070
 20
-14.1130
 30
0.00000
  70
    32
  0
VERTEX
  8
0
  5
16A
 10
0.804157
 20
-14.2846
 30
0.00000
  70
    32
  0
VERTEX
  8
0
  5
16B
 10
0.833667
 20
-14.4542
 30
0.00000
  70
    32
  0
VERTEX
  8
0
  5
16C
 10
0.863631
 20
-14.6219
 30
0.00000
  70
    32
  0
VERTEX
  8
0
  5
16D
 10
0.894083
 20
-14.7876
 30
0.00000
  70
    32
  0
VERTEX
  8
0
  5
16E
 10
0.925055
 20
-14.9515
 30
0.00000
  70
    32
  0
VERTEX
  8
0
  5
16F
 10
0.956580
 20
-15.1135
 30
0.00000
  70
    32
  0
VERTEX
  8
0
  5
170
 10
0.988691
 20
-15.2736
 30
0.00000
  70
    32
  0
VERTEX
  8
0
  5
171
 10
1.02142
 20
-15.4318
 30
0.00000
  70
    32
  0
VERTEX
  8
0
  5
172
 10
1.05480
 20
-15.5881
 30
0.00000
  70
    32
  0
VERTEX
  8
0
  5
173
 10
1.08886
 20
-15.7426
 30
0.00000
  70
    32
  0
VERTEX
  8
0
  5
174
 10
1.12364
 20
-15.8952
 30
0.00000
  70
    32
  0
VERTEX
  8
0
  5
175
 10
1.15917
 20
-16.0460
 30
0.00000
  70
    32
  0
VERTEX
  8
0
  5
176
 10
1.19548
 20
-16.1949
 30
0.00000
  70
    32
  0
VERTEX
  8
0
  5
177
 10
1.23261
 20
-16.3420
 30
0.00000
  70
    32
  0
VERTEX
  8
0
  5
178
 10
1.27058
 20
-16.4873
 30
0.00000
  70
    32
  0
VERTEX
  8
0
  5
179
 10
1.30943
 20
-16.6307
 30
0.00000
  70
    32
  0
VERTEX
  8
0
  5
17A
 10
1.34919
 20
-16.7724
 30
0.00000
  70
    32
  0
VERTEX
  8
0
  5
17B
 10
1.38990
 20
-16.9122
 30
0.00000
  70
    32
  0
VERTEX
  8
0
  5
17C
 10
1.43159
 20
-17.0503
 30
0.00000
  70
    32
  0
VERTEX
  8
0
  5
17D
 10
1.47429
 20
-17.1865
 30
0.00000
  70
    32
  0
VERTEX
  8
0
  5
17E
 10
1.51802
 20
-17.3210
 30
0.00000
  70
    32
  0
VERTEX
  8
0
  5
17F
 10
1.56284
 20
-17.4537
 30
0.00000
  70
    32
  0
VERTEX
  8
0
  5
180
 10
1.60876
 20
-17.5847
 30
0.00000
  70
    32
  0
VERTEX
  8
0
  5
181
 10
1.65583
 20
-17.7139
 30
0.00000
  70
    32
  0
VERTEX
  8
0
  5
182
 10
1.70406
 20
-17.8414
 30
0.00000
  70
    32
  0
VERTEX
  8
0
  5
183
 10
1.75351
 20
-17.9671
 30
0.00000
  70
    32
  0
VERTEX
  8
0
  5
184
 10
1.80419
 20
-18.0911
 30
0.00000
  70
    32
  0
VERTEX
  8
0
  5
185
 10
1.85614
 20
-18.2134
 30
0.00000
  70
    32
  0
VERTEX
  8
0
  5
186
 10
1.90940
 20
-18.3339
 30
0.00000
  70
    32
  0
VERTEX
  8
0
  5
187
 10
1.96400
 20
-18.4528
 30
0.00000
  70
    32
  0
VERTEX
  8
0
  5
188
 10
2.01996
 20
-18.5699
 30
0.00000
  70
    32
  0
VERTEX
  8
0
  5
189
 10
2.07733
 20
-18.6854
 30
0.00000
  70
    32
  0
VERTEX
  8
0
  5
18A
 10
2.13613
 20
-18.7991
 30
0.00000
  70
    32
  0
VERTEX
  8
0
  5
18B
 10
2.19640
 20
-18.9112
 30
0.00000
  70
    32
  0
VERTEX
  8
0
  5
18C
 10
2.25817
 20
-19.0217
 30
0.00000
  70
    32
  0
VERTEX
  8
0
  5
18D
 10
2.32147
 20
-19.1304
 30
0.00000
  70
    32
  0
VERTEX
  8
0
  5
18E
 10
2.38634
 20
-19.2376
 30
0.00000
  70
    32
  0
VERTEX
  8
0
  5
18F
 10
2.45281
 20
-19.3430
 30
0.00000
  70
    32
  0
VERTEX
  8
0
  5
190
 10
2.52090
 20
-19.4469
 30
0.00000
  70
    32
  0
VERTEX
  8
0
  5
191
 10
2.59066
 20
-19.5491
 30
0.00000
  70
    32
  0
VERTEX
  8
0
  5
192
 10
2.66212
 20
-19.6497
 30
0.00000
  70
    32
  0
VERTEX
  8
0
  5
193
 10
2.73531
 20
-19.7487
 30
0.00000
  70
    32
  0
VERTEX
  8
0
  5
194
 10
2.81025
 20
-19.8461
 30
0.00000
  70
    32
  0
VERTEX
  8
0
  5
195
 10
2.88699
 20
-19.9418
 30
0.00000
  70
    32
  0
VERTEX
  8
0
  5
196
 10
2.96556
 20
-20.0360
 30
0.00000
  70
    32
  0
VERTEX
  8
0
  5
197
 10
3.04599
 20
-20.1286
 30
0.00000
  70
    32
  0
VERTEX
  8
0
  5
198
 10
3.12831
 20
-20.2197
 30
0.00000
  70
    32
  0
VERTEX
  8
0
  5
199
 10
3.21255
 20
-20.3092
 30
0.00000
  70
    32
  0
VERTEX
  8
0
  5
19A
 10
3.29876
 20
-20.3971
 30
0.00000
  70
    32
  0
VERTEX
  8
0
  5
19B
 10
3.38695
 20
-20.4834
 30
0.00000
  70
    32
  0
VERTEX
  8
0
  5
19C
 10
3.47716
 20
-20.5683
 30
0.00000
  70
    32
  0
VERTEX
  8
0
  5
19D
 10
3.56943
 20
-20.6516
 30
0.00000
  70
    32
  0
VERTEX
  8
0
  5
19E
 10
3.66379
 20
-20.7333
 30
0.00000
  70
    32
  0
VERTEX
  8
0
  5
19F
 10
3.76027
 20
-20.8136
 30
0.00000
  70
    32
  0
VERTEX
  8
0
  5
1A0
 10
3.85890
 20
-20.8923
 30
0.00000
  70
    32
  0
VERTEX
  8
0
  5
1A1
 10
3.95972
 20
-20.9695
 30
0.00000
  70
    32
  0
VERTEX
  8
0
  5
1A2
 10
4.06276
 20
-21.0453
 30
0.00000
  70
    32
  0
VERTEX
  8
0
  5
1A3
 10
4.16805
 20
-21.1195
 30
0.00000
  70
    32
  0
VERTEX
  8
0
  5
1A4
 10
4.27562
 20
-21.1923
 30
0.00000
  70
    32
  0
VERTEX
  8
0
  5
1A5
 10
4.38551
 20
-21.2636
 30
0.00000
  70
    32
  0
VERTEX
  8
0
  5
1A6
 10
4.49775
 20
-21.3335
 30
0.00000
  70
    32
  0
VERTEX
  8
0
  5
1A7
 10
4.61237
 20
-21.4018
 30
0.00000
  70
    32
  0
VERTEX
  8
0
  5
1A8
 10
4.72941
 20
-21.4688
 30
0.00000
  70
    32
  0
VERTEX
  8
0
  5
1A9
 10
4.84889
 20
-21.5343
 30
0.00000
  70
    32
  0
VERTEX
  8
0
  5
1AA
 10
4.97086
 20
-21.5984
 30
0.00000
  70
    32
  0
VERTEX
  8
0
  5
1AB
 10
5.09533
 20
-21.6610
 30
0.00000
  70
    32
  0
VERTEX
  8
0
  5
1AC
 10
5.22235
 20
-21.7222
 30
0.00000
  70
    32
  0
VERTEX
  8
0
  5
1AD
 10
5.35195
 20
-21.7821
 30
0.00000
  70
    32
  0
VERTEX
  8
0
  5
1AE
 10
5.48416
 20
-21.8405
 30
0.00000
  70
    32
  0
VERTEX
  8
0
  5
1AF
 10
5.61902
 20
-21.8975
 30
0.00000
  70
    32
  0
VERTEX
  8
0
  5
1B0
 10
5.75655
 20
-21.9531
 30
0.00000
  70
    32
  0
VERTEX
  8
0
  5
1B1
 10
5.89679
 20
-22.0074
 30
0.00000
  70
    32
  0
VERTEX
  8
0
  5
1B2
 10
6.03977
 20
-22.0603
 30
0.00000
  70
    32
  0
VERTEX
  8
0
  5
1B3
 10
6.18552
 20
-22.1119
 30
0.00000
  70
    32
  0
VERTEX
  8
0
  5
1B4
 10
6.33408
 20
-22.1620
 30
0.00000
  70
    32
  0
VERTEX
  8
0
  5
1B5
 10
6.48548
 20
-22.2109
 30
0.00000
  70
    32
  0
VERTEX
  8
0
  5
1B6
 10
6.63976
 20
-22.2584
 30
0.00000
  70
    32
  0
VERTEX
  8
0
  5
1B7
 10
6.79693
 20
-22.3046
 30
0.00000
  70
    32
  0
VERTEX
  8
0
  5
1B8
 10
6.95705
 20
-22.3494
 30
0.00000
  70
    32
  0
VERTEX
  8
0
  5
1B9
 10
7.12013
 20
-22.3930
 30
0.00000
  70
    32
  0
VERTEX
  8
0
  5
1BA
 10
7.28622
 20
-22.4352
 30
0.00000
  70
    32
  0
VERTEX
  8
0
  5
1BB
 10
7.45534
 20
-22.4761
 30
0.00000
  70
    32
  0
VERTEX
  8
0
  5
1BC
 10
7.62753
 20
-22.5158
 30
0.00000
  70
    32
  0
VERTEX
  8
0
  5
1BD
 10
7.80282
 20
-22.5541
 30
0.00000
  70
    32
  0
VERTEX
  8
0
  5
1BE
 10
7.98125
 20
-22.5912
 30
0.00000
  70
    32
  0
VERTEX
  8
0
  5
1BF
 10
8.16284
 20
-22.6271
 30
0.00000
  70
    32
  0
VERTEX
  8
0
  5
1C0
 10
8.34763
 20
-22.6616
 30
0.00000
  70
    32
  0
VERTEX
  8
0
  5
1C1
 10
8.53565
 20
-22.6949
 30
0.00000
  70
    32
  0
VERTEX
  8
0
  5
1C2
 10
8.72694
 20
-22.7270
 30
0.00000
  70
    32
  0
VERTEX
  8
0
  5
1C3
 10
8.92152
 20
-22.7578
 30
0.00000
  70
    32
  0
VERTEX
  8
0
  5
1C4
 10
9.11943
 20
-22.7874
 30
0.00000
  70
    32
  0
VERTEX
  8
0
  5
1C5
 10
9.32070
 20
-22.8158
 30
0.00000
  70
    32
  0
VERTEX
  8
0
  5
1C6
 10
9.52537
 20
-22.8430
 30
0.00000
  70
    32
  0
VERTEX
  8
0
  5
1C7
 10
9.73346
 20
-22.8690
 30
0.00000
  70
    32
  0
VERTEX
  8
0
  5
1C8
 10
9.94502
 20
-22.8938
 30
0.00000
  70
    32
  0
VERTEX
  8
0
  5
1C9
 10
10.1601
 20
-22.9174
 30
0.00000
  70
    32
  0
VERTEX
  8
0
  5
1CA
 10
10.3786
 20
-22.9398
 30
0.00000
  70
    32
  0
VERTEX
  8
0
  5
1CB
 10
10.6008
 20
-22.9610
 30
0.00000
  70
    32
  0
VERTEX
  8
0
  5
1CC
 10
10.8265
 20
-22.9811
 30
0.00000
  70
    32
  0
VERTEX
  8
0
  5
1CD
 10
11.0558
 20
-23.0000
 30
0.00000
  70
    32
  0
SEQEND
  8
0
  5
1CE
  0
LINE
  5
DD
  8
0
 10
11.0558345526805901
 20
-23.0
 30
0.0
 11
174.4741654473193933
 21
-23.0
 31
0.0
  0
POLYLINE
  8
0
  5
1CF
  66
     1
 10
0.00000
 20
0.00000
 30
0.00000
  70
     8
  0
VERTEX
  8
0
  5
1D0
 10
185.530
 20
-8.50000
 30
0.00000
  70
    32
  0
VERTEX
  8
0
  5
1D1
 10
185.499
 20
-8.73039
 30
0.00000
  70
    32
  0
VERTEX
  8
0
  5
1D2
 10
185.469
 20
-8.95860
 30
0.00000
  70
    32
  0
VERTEX
  8
0
  5
1D3
 10
185.439
 20
-9.18464
 30
0.00000
  70
    32
  0
VERTEX
  8
0
  5
1D4
 10
185.410
 20
-9.40852
 30
0.00000
  70
    32
  0
VERTEX
  8
0
  5
1D5
 10
185.381
 20
-9.63024
 30
0.00000
  70
    32
  0
VERTEX
  8
0
  5
1D6
 10
185.352
 20
-9.84981
 30
0.00000
  70
    32
  0
VERTEX
  8
0
  5
1D7
 10
185.324
 20
-10.0672
 30
0.00000
  70
    32
  0
VERTEX
  8
0
  5
1D8
 10
185.296
 20
-10.2825
 30
0.00000
  70
    32
  0
VERTEX
  8
0
  5
1D9
 10
185.268
 20
-10.4957
 30
0.00000
  70
    32
  0
VERTEX
  8
0
  5
1DA
 10
185.241
 20
-10.7068
 30
0.00000
  70
    32
  0
VERTEX
  8
0
  5
1DB
 10
185.214
 20
-10.9157
 30
0.00000
  70
    32
  0
VERTEX
  8
0
  5
1DC
 10
185.187
 20
-11.1226
 30
0.00000
  70
    32
  0
VERTEX
  8
0
  5
1DD
 10
185.160
 20
-11.3274
 30
0.00000
  70
    32
  0
VERTEX
  8
0
  5
1DE
 10
185.133
 20
-11.5300
 30
0.00000
  70
    32
  0
VERTEX
  8
0
  5
1DF
 10
185.106
 20
-11.7306
 30
0.00000
  70
    32
  0
VERTEX
  8
0
  5
1E0
 10
185.079
 20
-11.9292
 30
0.00000
  70
    32
  0
VERTEX
  8
0
  5
1E1
 10
185.052
 20
-12.1257
 30
0.00000
  70
    32
  0
VERTEX
  8
0
  5
1E2
 10
185.026
 20
-12.3201
 30
0.00000
  70
    32
  0
VERTEX
  8
0
  5
1E3
 10
184.999
 20
-12.5125
 30
0.00000
  70
    32
  0
VERTEX
  8
0
  5
1E4
 10
184.972
 20
-12.7028
 30
0.00000
  70
    32
  0
VERTEX
  8
0
  5
1E5
 10
184.945
 20
-12.8911
 30
0.00000
  70
    32
  0
VERTEX
  8
0
  5
1E6
 10
184.917
 20
-13.0774
 30
0.00000
  70
    32
  0
VERTEX
  8
0
  5
1E7
 10
184.890
 20
-13.2617
 30
0.00000
  70
    32
  0
VERTEX
  8
0
  5
1E8
 10
184.862
 20
-13.4440
 30
0.00000
  70
    32
  0
VERTEX
  8
0
  5
1E9
 10
184.834
 20
-13.6243
 30
0.00000
  70
    32
  0
VERTEX
  8
0
  5
1EA
 10
184.806
 20
-13.8026
 30
0.00000
  70
    32
  0
VERTEX
  8
0
  5
1EB
 10
184.777
 20
-13.9790
 30
0.00000
  70
    32
  0
VERTEX
  8
0
  5
1EC
 10
184.748
 20
-14.1533
 30
0.00000
  70
    32
  0
VERTEX
  8
0
  5
1ED
 10
184.719
 20
-14.3257
 30
0.00000
  70
    32
  0
VERTEX
  8
0
  5
1EE
 10
184.689
 20
-14.4961
 30
0.00000
  70
    32
  0
VERTEX
  8
0
  5
1EF
 10
184.659
 20
-14.6646
 30
0.00000
  70
    32
  0
VERTEX
  8
0
  5
1F0
 10
184.628
 20
-14.8312
 30
0.00000
  70
    32
  0
VERTEX
  8
0
  5
1F1
 10
184.596
 20
-14.9958
 30
0.00000
  70
    32
  0
VERTEX
  8
0
  5
1F2
 10
184.564
 20
-15.1585
 30
0.00000
  70
    32
  0
VERTEX
  8
0
  5
1F3
 10
184.532
 20
-15.3193
 30
0.00000
  70
    32
  0
VERTEX
  8
0
  5
1F4
 10
184.499
 20
-15.4782
 30
0.00000
  70
    32
  0
VERTEX
  8
0
  5
1F5
 10
184.465
 20
-15.6352
 30
0.00000
  70
    32
  0
VERTEX
  8
0
  5
1F6
 10
184.430
 20
-15.7903
 30
0.00000
  70
    32
  0
VERTEX
  8
0
  5
1F7
 10
184.395
 20
-15.9435
 30
0.00000
  70
    32
  0
VERTEX
  8
0
  5
1F8
 10
184.359
 20
-16.0948
 30
0.00000
  70
    32
  0
VERTEX
  8
0
  5
1F9
 10
184.322
 20
-16.2443
 30
0.00000
  70
    32
  0
VERTEX
  8
0
  5
1FA
 10
184.284
 20
-16.3919
 30
0.00000
  70
    32
  0
VERTEX
  8
0
  5
1FB
 10
184.246
 20
-16.5377
 30
0.00000
  70
    32
  0
VERTEX
  8
0
  5
1FC
 10
184.206
 20
-16.6816
 30
0.00000
  70
    32
  0
VERTEX
  8
0
  5
1FD
 10
184.166
 20
-16.8237
 30
0.00000
  70
    32
  0
VERTEX
  8
0
  5
1FE
 10
184.125
 20
-16.9639
 30
0.00000
  70
    32
  0
VERTEX
  8
0
  5
1FF
 10
184.082
 20
-17.1024
 30
0.00000
  70
    32
  0
VERTEX
  8
0
  5
200
 10
184.039
 20
-17.2390
 30
0.00000
  70
    32
  0
VERTEX
  8
0
  5
201
 10
183.994
 20
-17.3738
 30
0.00000
  70
    32
  0
VERTEX
  8
0
  5
202
 10
183.949
 20
-17.5069
 30
0.00000
  70
    32
  0
VERTEX
  8
0
  5
203
 10
183.902
 20
-17.6381
 30
0.00000
  70
    32
  0
VERTEX
  8
0
  5
204
 10
183.854
 20
-17.7676
 30
0.00000
  70
    32
  0
VERTEX
  8
0
  5
205
 10
183.805
 20
-17.8953
 30
0.00000
  70
    32
  0
VERTEX
  8
0
  5
206
 10
183.755
 20
-18.0212
 30
0.00000
  70
    32
  0
VERTEX
  8
0
  5
207
 10
183.703
 20
-18.1454
 30
0.00000
  70
    32
  0
VERTEX
  8
0
  5
208
 10
183.650
 20
-18.2679
 30
0.00000
  70
    32
  0
VERTEX
  8
0
  5
209
 10
183.596
 20
-18.3886
 30
0.00000
  70
    32
  0
VERTEX
  8
0
  5
20A
 10
183.540
 20
-18.5076
 30
0.00000
  70
    32
  0
VERTEX
  8
0
  5
20B
 10
183.483
 20
-18.6248
 30
0.00000
  70
    32
  0
VERTEX
  8
0
  5
20C
 10
183.425
 20
-18.7403
 30
0.00000
  70
    32
  0
VERTEX
  8
0
  5
20D
 10
183.365
 20
-18.8542
 30
0.00000
  70
    32
  0
VERTEX
  8
0
  5
20E
 10
183.303
 20
-18.9663
 30
0.00000
  70
    32
  0
VERTEX
  8
0
  5
20F
 10
183.240
 20
-19.0768
 30
0.00000
  70
    32
  0
VERTEX
  8
0
  5
210
 10
183.175
 20
-19.1855
 30
0.00000
  70
    32
  0
VERTEX
  8
0
  5
211
 10
183.109
 20
-19.2926
 30
0.00000
  70
    32
  0
VERTEX
  8
0
  5
212
 10
183.041
 20
-19.3981
 30
0.00000
  70
    32
  0
VERTEX
  8
0
  5
213
 10
182.972
 20
-19.5018
 30
0.00000
  70
    32
  0
VERTEX
  8
0
  5
214
 10
182.901
 20
-19.6040
 30
0.00000
  70
    32
  0
VERTEX
  8
0
  5
215
 10
182.828
 20
-19.7044
 30
0.00000
  70
    32
  0
VERTEX
  8
0
  5
216
 10
182.753
 20
-19.8033
 30
0.00000
  70
    32
  0
VERTEX
  8
0
  5
217
 10
182.676
 20
-19.9005
 30
0.00000
  70
    32
  0
VERTEX
  8
0
  5
218
 10
182.598
 20
-19.9961
 30
0.00000
  70
    32
  0
VERTEX
  8
0
  5
219
 10
182.518
 20
-20.0901
 30
0.00000
  70
    32
  0
VERTEX
  8
0
  5
21A
 10
182.436
 20
-20.1825
 30
0.00000
  70
    32
  0
VERTEX
  8
0
  5
21B
 10
182.352
 20
-20.2733
 30
0.00000
  70
    32
  0
VERTEX
  8
0
  5
21C
 10
182.266
 20
-20.3626
 30
0.00000
  70
    32
  0
VERTEX
  8
0
  5
21D
 10
182.177
 20
-20.4502
 30
0.00000
  70
    32
  0
VERTEX
  8
0
  5
21E
 10
182.087
 20
-20.5363
 30
0.00000
  70
    32
  0
VERTEX
  8
0
  5
21F
 10
181.995
 20
-20.6208
 30
0.00000
  70
    32
  0
VERTEX
  8
0
  5
220
 10
181.901
 20
-20.7037
 30
0.00000
  70
    32
  0
VERTEX
  8
0
  5
221
 10
181.804
 20
-20.7852
 30
0.00000
  70
    32
  0
VERTEX
  8
0
  5
222
 10
181.706
 20
-20.8651
 30
0.00000
  70
    32
  0
VERTEX
  8
0
  5
223
 10
181.605
 20
-20.9434
 30
0.00000
  70
    32
  0
VERTEX
  8
0
  5
224
 10
181.502
 20
-21.0202
 30
0.00000
  70
    32
  0
VERTEX
  8
0
  5
225
 10
181.396
 20
-21.0956
 30
0.00000
  70
    32
  0
VERTEX
  8
0
  5
226
 10
181.289
 20
-21.1694
 30
0.00000
  70
    32
  0
VERTEX
  8
0
  5
227
 10
181.179
 20
-21.2417
 30
0.00000
  70
    32
  0
VERTEX
  8
0
  5
228
 10
181.066
 20
-21.3125
 30
0.00000
  70
    32
  0
VERTEX
  8
0
  5
229
 10
180.952
 20
-21.3819
 30
0.00000
  70
    32
  0
VERTEX
  8
0
  5
22A
 10
180.834
 20
-21.4498
 30
0.00000
  70
    32
  0
VERTEX
  8
0
  5
22B
 10
180.715
 20
-21.5162
 30
0.00000
  70
    32
  0
VERTEX
  8
0
  5
22C
 10
180.592
 20
-21.5811
 30
0.00000
  70
    32
  0
VERTEX
  8
0
  5
22D
 10
180.468
 20
-21.6447
 30
0.00000
  70
    32
  0
VERTEX
  8
0
  5
22E
 10
180.340
 20
-21.7067
 30
0.00000
  70
    32
  0
VERTEX
  8
0
  5
22F
 10
180.210
 20
-21.7674
 30
0.00000
  70
    32
  0
VERTEX
  8
0
  5
230
 10
180.078
 20
-21.8266
 30
0.00000
  70
    32
  0
VERTEX
  8
0
  5
231
 10
179.943
 20
-21.8844
 30
0.00000
  70
    32
  0
VERTEX
  8
0
  5
232
 10
179.805
 20
-21.9408
 30
0.00000
  70
    32
  0
VERTEX
  8
0
  5
233
 10
179.664
 20
-21.9958
 30
0.00000
  70
    32
  0
VERTEX
  8
0
  5
234
 10
179.520
 20
-22.0494
 30
0.00000
  70
    32
  0
VERTEX
  8
0
  5
235
 10
179.374
 20
-22.1016
 30
0.00000
  70
    32
  0
VERTEX
  8
0
  5
236
 10
179.225
 20
-22.1524
 30
0.00000
  70
    32
  0
VERTEX
  8
0
  5
237
 10
179.073
 20
-22.2019
 30
0.00000
  70
    32
  0
VERTEX
  8
0
  5
238
 10
178.918
 20
-22.2500
 30
0.00000
  70
    32
  0
VERTEX
  8
0
  5
239
 10
178.760
 20
-22.2968
 30
0.00000
  70
    32
  0
VERTEX
  8
0
  5
23A
 10
178.599
 20
-22.3422
 30
0.00000
  70
    32
  0
VERTEX
  8
0
  5
23B
 10
178.435
 20
-22.3863
 30
0.00000
  70
    32
  0
VERTEX
  8
0
  5
23C
 10
178.268
 20
-22.4291
 30
0.00000
  70
    32
  0
VERTEX
  8
0
  5
23D
 10
178.098
 20
-22.4705
 30
0.00000
  70
    32
  0
VERTEX
  8
0
  5
23E
 10
177.925
 20
-22.5106
 30
0.00000
  70
    32
  0
VERTEX
  8
0
  5
23F
 10
177.749
 20
-22.5495
 30
0.00000
  70
    32
  0
VERTEX
  8
0
  5
240
 10
177.570
 20
-22.5870
 30
0.00000
  70
    32
  0
VERTEX
  8
0
  5
241
 10
177.387
 20
-22.6232
 30
0.00000
  70
    32
  0
VERTEX
  8
0
  5
242
 10
177.201
 20
-22.6582
 30
0.00000
  70
    32
  0
VERTEX
  8
0
  5
243
 10
177.012
 20
-22.6919
 30
0.00000
  70
    32
  0
VERTEX
  8
0
  5
244
 10
176.819
 20
-22.7243
 30
0.00000
  70
    32
  0
VERTEX
  8
0
  5
245
 10
176.624
 20
-22.7555
 30
0.00000
  70
    32
  0
VERTEX
  8
0
  5
246
 10
176.424
 20
-22.7854
 30
0.00000
  70
    32
  0
VERTEX
  8
0
  5
247
 10
176.222
 20
-22.8141
 30
0.00000
  70
    32
  0
VERTEX
  8
0
  5
248
 10
176.016
 20
-22.8416
 30
0.00000
  70
    32
  0
VERTEX
  8
0
  5
249
 10
175.806
 20
-22.8678
 30
0.00000
  70
    32
  0
VERTEX
  8
0
  5
24A
 10
175.593
 20
-22.8928
 30
0.00000
  70
    32
  0
VERTEX
  8
0
  5
24B
 10
175.377
 20
-22.9166
 30
0.00000
  70
    32
  0
VERTEX
  8
0
  5
24C
 10
175.156
 20
-22.9393
 30
0.00000
  70
    32
  0
VERTEX
  8
0
  5
24D
 10
174.933
 20
-22.9607
 30
0.00000
  70
    32
  0
VERTEX
  8
0
  5
24E
 10
174.705
 20
-22.9809
 30
0.00000
  70
    32
  0
VERTEX
  8
0
  5
24F
 10
174.474
 20
-23.0000
 30
0.00000
  70
    32
  0
SEQEND
  8
0
  5
250
  0
LINE
  5
DF
  8
0
 10
185.5300000000000011
 20
140.5
 30
0.0
 11
185.5300000000000011
 21
-8.4999999999999964
 31
0.0
  0
POLYLINE
  8
0
  5
251
  66
     1
 10
0.00000
 20
0.00000
 30
0.00000
  70
     8
  0
VERTEX
  8
0
  5
252
 10
185.530
 20
140.500
 30
0.00000
  70
    32
  0
VERTEX
  8
0
  5
253
 10
185.499
 20
140.730
 30
0.00000
  70
    32
  0
VERTEX
  8
0
  5
254
 10
185.469
 20
140.959
 30
0.00000
  70
    32
  0
VERTEX
  8
0
  5
255
 10
185.439
 20
141.185
 30
0.00000
  70
    32
  0
VERTEX
  8
0
  5
256
 10
185.410
 20
141.409
 30
0.00000
  70
    32
  0
VERTEX
  8
0
  5
257
 10
185.381
 20
141.630
 30
0.00000
  70
    32
  0
VERTEX
  8
0
  5
258
 10
185.352
 20
141.850
 30
0.00000
  70
    32
  0
VERTEX
  8
0
  5
259
 10
185.324
 20
142.067
 30
0.00000
  70
    32
  0
VERTEX
  8
0
  5
25A
 10
185.296
 20
142.283
 30
0.00000
  70
    32
  0
VERTEX
  8
0
  5
25B
 10
185.268
 20
142.496
 30
0.00000
  70
    32
  0
VERTEX
  8
0
  5
25C
 10
185.241
 20
142.707
 30
0.00000
  70
    32
  0
VERTEX
  8
0
  5
25D
 10
185.214
 20
142.916
 30
0.00000
  70
    32
  0
VERTEX
  8
0
  5
25E
 10
185.187
 20
143.123
 30
0.00000
  70
    32
  0
VERTEX
  8
0
  5
25F
 10
185.160
 20
143.327
 30
0.00000
  70
    32
  0
VERTEX
  8
0
  5
260
 10
185.133
 20
143.530
 30
0.00000
  70
    32
  0
VERTEX
  8
0
  5
261
 10
185.106
 20
143.731
 30
0.00000
  70
    32
  0
VERTEX
  8
0
  5
262
 10
185.079
 20
143.929
 30
0.00000
  70
    32
  0
VERTEX
  8
0
  5
263
 10
185.052
 20
144.126
 30
0.00000
  70
    32
  0
VERTEX
  8
0
  5
264
 10
185.026
 20
144.320
 30
0.00000
  70
    32
  0
VERTEX
  8
0
  5
265
 10
184.999
 20
144.512
 30
0.00000
  70
    32
  0
VERTEX
  8
0
  5
266
 10
184.972
 20
144.703
 30
0.00000
  70
    32
  0
VERTEX
  8
0
  5
267
 10
184.945
 20
144.891
 30
0.00000
  70
    32
  0
VERTEX
  8
0
  5
268
 10
184.917
 20
145.077
 30
0.00000
  70
    32
  0
VERTEX
  8
0
  5
269
 10
184.890
 20
145.262
 30
0.00000
  70
    32
  0
VERTEX
  8
0
  5
26A
 10
184.862
 20
145.444
 30
0.00000
  70
    32
  0
VERTEX
  8
0
  5
26B
 10
184.834
 20
145.624
 30
0.00000
  70
    32
  0
VERTEX
  8
0
  5
26C
 10
184.806
 20
145.803
 30
0.00000
  70
    32
  0
VERTEX
  8
0
  5
26D
 10
184.777
 20
145.979
 30
0.00000
  70
    32
  0
VERTEX
  8
0
  5
26E
 10
184.748
 20
146.153
 30
0.00000
  70
    32
  0
VERTEX
  8
0
  5
26F
 10
184.719
 20
146.326
 30
0.00000
  70
    32
  0
VERTEX
  8
0
  5
270
 10
184.689
 20
146.496
 30
0.00000
  70
    32
  0
VERTEX
  8
0
  5
271
 10
184.659
 20
146.665
 30
0.00000
  70
    32
  0
VERTEX
  8
0
  5
272
 10
184.628
 20
146.831
 30
0.00000
  70
    32
  0
VERTEX
  8
0
  5
273
 10
184.596
 20
146.996
 30
0.00000
  70
    32
  0
VERTEX
  8
0
  5
274
 10
184.564
 20
147.159
 30
0.00000
  70
    32
  0
VERTEX
  8
0
  5
275
 10
184.532
 20
147.319
 30
0.00000
  70
    32
  0
VERTEX
  8
0
  5
276
 10
184.499
 20
147.478
 30
0.00000
  70
    32
  0
VERTEX
  8
0
  5
277
 10
184.465
 20
147.635
 30
0.00000
  70
    32
  0
VERTEX
  8
0
  5
278
 10
184.430
 20
147.790
 30
0.00000
  70
    32
  0
VERTEX
  8
0
  5
279
 10
184.395
 20
147.943
 30
0.00000
  70
    32
  0
VERTEX
  8
0
  5
27A
 10
184.359
 20
148.095
 30
0.00000
  70
    32
  0
VERTEX
  8
0
  5
27B
 10
184.322
 20
148.244
 30
0.00000
  70
    32
  0
VERTEX
  8
0
  5
27C
 10
184.284
 20
148.392
 30
0.00000
  70
    32
  0
VERTEX
  8
0
  5
27D
 10
184.246
 20
148.538
 30
0.00000
  70
    32
  0
VERTEX
  8
0
  5
27E
 10
184.206
 20
148.682
 30
0.00000
  70
    32
  0
VERTEX
  8
0
  5
27F
 10
184.166
 20
148.824
 30
0.00000
  70
    32
  0
VERTEX
  8
0
  5
280
 10
184.125
 20
148.964
 30
0.00000
  70
    32
  0
VERTEX
  8
0
  5
281
 10
184.082
 20
149.102
 30
0.00000
  70
    32
  0
VERTEX
  8
0
  5
282
 10
184.039
 20
149.239
 30
0.00000
  70
    32
  0
VERTEX
  8
0
  5
283
 10
183.994
 20
149.374
 30
0.00000
  70
    32
  0
VERTEX
  8
0
  5
284
 10
183.949
 20
149.507
 30
0.00000
  70
    32
  0
VERTEX
  8
0
  5
285
 10
183.902
 20
149.638
 30
0.00000
  70
    32
  0
VERTEX
  8
0
  5
286
 10
183.854
 20
149.768
 30
0.00000
  70
    32
  0
VERTEX
  8
0
  5
287
 10
183.805
 20
149.895
 30
0.00000
  70
    32
  0
VERTEX
  8
0
  5
288
 10
183.755
 20
150.021
 30
0.00000
  70
    32
  0
VERTEX
  8
0
  5
289
 10
183.703
 20
150.145
 30
0.00000
  70
    32
  0
VERTEX
  8
0
  5
28A
 10
183.650
 20
150.268
 30
0.00000
  70
    32
  0
VERTEX
  8
0
  5
28B
 10
183.596
 20
150.389
 30
0.00000
  70
    32
  0
VERTEX
  8
0
  5
28C
 10
183.540
 20
150.508
 30
0.00000
  70
    32
  0
VERTEX
  8
0
  5
28D
 10
183.483
 20
150.625
 30
0.00000
  70
    32
  0
VERTEX
  8
0
  5
28E
 10
183.425
 20
150.740
 30
0.00000
  70
    32
  0
VERTEX
  8
0
  5
28F
 10
183.365
 20
150.854
 30
0.00000
  70
    32
  0
VERTEX
  8
0
  5
290
 10
183.303
 20
150.966
 30
0.00000
  70
    32
  0
VERTEX
  8
0
  5
291
 10
183.240
 20
151.077
 30
0.00000
  70
    32
  0
VERTEX
  8
0
  5
292
 10
183.175
 20
151.186
 30
0.00000
  70
    32
  0
VERTEX
  8
0
  5
293
 10
183.109
 20
151.293
 30
0.00000
  70
    32
  0
VERTEX
  8
0
  5
294
 10
183.041
 20
151.398
 30
0.00000
  70
    32
  0
VERTEX
  8
0
  5
295
 10
182.972
 20
151.502
 30
0.00000
  70
    32
  0
VERTEX
  8
0
  5
296
 10
182.901
 20
151.604
 30
0.00000
  70
    32
  0
VERTEX
  8
0
  5
297
 10
182.828
 20
151.704
 30
0.00000
  70
    32
  0
VERTEX
  8
0
  5
298
 10
182.753
 20
151.803
 30
0.00000
  70
    32
  0
VERTEX
  8
0
  5
299
 10
182.676
 20
151.901
 30
0.00000
  70
    32
  0
VERTEX
  8
0
  5
29A
 10
182.598
 20
151.996
 30
0.00000
  70
    32
  0
VERTEX
  8
0
  5
29B
 10
182.518
 20
152.090
 30
0.00000
  70
    32
  0
VERTEX
  8
0
  5
29C
 10
182.436
 20
152.183
 30
0.00000
  70
    32
  0
VERTEX
  8
0
  5
29D
 10
182.352
 20
152.273
 30
0.00000
  70
    32
  0
VERTEX
  8
0
  5
29E
 10
182.266
 20
152.363
 30
0.00000
  70
    32
  0
VERTEX
  8
0
  5
29F
 10
182.177
 20
152.450
 30
0.00000
  70
    32
  0
VERTEX
  8
0
  5
2A0
 10
182.087
 20
152.536
 30
0.00000
  70
    32
  0
VERTEX
  8
0
  5
2A1
 10
181.995
 20
152.621
 30
0.00000
  70
    32
  0
VERTEX
  8
0
  5
2A2
 10
181.901
 20
152.704
 30
0.00000
  70
    32
  0
VERTEX
  8
0
  5
2A3
 10
181.804
 20
152.785
 30
0.00000
  70
    32
  0
VERTEX
  8
0
  5
2A4
 10
181.706
 20
152.865
 30
0.00000
  70
    32
  0
VERTEX
  8
0
  5
2A5
 10
181.605
 20
152.943
 30
0.00000
  70
    32
  0
VERTEX
  8
0
  5
2A6
 10
181.502
 20
153.020
 30
0.00000
  70
    32
  0
VERTEX
  8
0
  5
2A7
 10
181.396
 20
153.096
 30
0.00000
  70
    32
  0
VERTEX
  8
0
  5
2A8
 10
181.289
 20
153.169
 30
0.00000
  70
    32
  0
VERTEX
  8
0
  5
2A9
 10
181.179
 20
153.242
 30
0.00000
  70
    32
  0
VERTEX
  8
0
  5
2AA
 10
181.066
 20
153.313
 30
0.00000
  70
    32
  0
VERTEX
  8
0
  5
2AB
 10
180.952
 20
153.382
 30
0.00000
  70
    32
  0
VERTEX
  8
0
  5
2AC
 10
180.834
 20
153.450
 30
0.00000
  70
    32
  0
VERTEX
  8
0
  5
2AD
 10
180.715
 20
153.516
 30
0.00000
  70
    32
  0
VERTEX
  8
0
  5
2AE
 10
180.592
 20
153.581
 30
0.00000
  70
    32
  0
VERTEX
  8
0
  5
2AF
 10
180.468
 20
153.645
 30
0.00000
  70
    32
  0
VERTEX
  8
0
  5
2B0
 10
180.340
 20
153.707
 30
0.00000
  70
    32
  0
VERTEX
  8
0
  5
2B1
 10
180.210
 20
153.767
 30
0.00000
  70
    32
  0
VERTEX
  8
0
  5
2B2
 10
180.078
 20
153.827
 30
0.00000
  70
    32
  0
VERTEX
  8
0
  5
2B3
 10
179.943
 20
153.884
 30
0.00000
  70
    32
  0
VERTEX
  8
0
  5
2B4
 10
179.805
 20
153.941
 30
0.00000
  70
    32
  0
VERTEX
  8
0
  5
2B5
 10
179.664
 20
153.996
 30
0.00000
  70
    32
  0
VERTEX
  8
0
  5
2B6
 10
179.520
 20
154.049
 30
0.00000
  70
    32
  0
VERTEX
  8
0
  5
2B7
 10
179.374
 20
154.102
 30
0.00000
  70
    32
  0
VERTEX
  8
0
  5
2B8
 10
179.225
 20
154.152
 30
0.00000
  70
    32
  0
VERTEX
  8
0
  5
2B9
 10
179.073
 20
154.202
 30
0.00000
  70
    32
  0
VERTEX
  8
0
  5
2BA
 10
178.918
 20
154.250
 30
0.00000
  70
    32
  0
VERTEX
  8
0
  5
2BB
 10
178.760
 20
154.297
 30
0.00000
  70
    32
  0
VERTEX
  8
0
  5
2BC
 10
178.599
 20
154.342
 30
0.00000
  70
    32
  0
VERTEX
  8
0
  5
2BD
 10
178.435
 20
154.386
 30
0.00000
  70
    32
  0
VERTEX
  8
0
  5
2BE
 10
178.268
 20
154.429
 30
0.00000
  70
    32
  0
VERTEX
  8
0
  5
2BF
 10
178.098
 20
154.471
 30
0.00000
  70
    32
  0
VERTEX
  8
0
  5
2C0
 10
177.925
 20
154.511
 30
0.00000
  70
    32
  0
VERTEX
  8
0
  5
2C1
 10
177.749
 20
154.549
 30
0.00000
  70
    32
  0
VERTEX
  8
0
  5
2C2
 10
177.570
 20
154.587
 30
0.00000
  70
    32
  0
VERTEX
  8
0
  5
2C3
 10
177.387
 20
154.623
 30
0.00000
  70
    32
  0
VERTEX
  8
0
  5
2C4
 10
177.201
 20
154.658
 30
0.00000
  70
    32
  0
VERTEX
  8
0
  5
2C5
 10
177.012
 20
154.692
 30
0.00000
  70
    32
  0
VERTEX
  8
0
  5
2C6
 10
176.819
 20
154.724
 30
0.00000
  70
    32
  0
VERTEX
  8
0
  5
2C7
 10
176.624
 20
154.755
 30
0.00000
  70
    32
  0
VERTEX
  8
0
  5
2C8
 10
176.424
 20
154.785
 30
0.00000
  70
    32
  0
VERTEX
  8
0
  5
2C9
 10
176.222
 20
154.814
 30
0.00000
  70
    32
  0
VERTEX
  8
0
  5
2CA
 10
176.016
 20
154.842
 30
0.00000
  70
    32
  0
VERTEX
  8
0
  5
2CB
 10
175.806
 20
154.868
 30
0.00000
  70
    32
  0
VERTEX
  8
0
  5
2CC
 10
175.593
 20
154.893
 30
0.00000
  70
    32
  0
VERTEX
  8
0
  5
2CD
 10
175.377
 20
154.917
 30
0.00000
  70
    32
  0
VERTEX
  8
0
  5
2CE
 10
175.156
 20
154.939
 30
0.00000
  70
    32
  0
VERTEX
  8
0
  5
2CF
 10
174.933
 20
154.961
 30
0.00000
  70
    32
  0
VERTEX
  8
0
  5
2D0
 10
174.705
 20
154.981
 30
0.00000
  70
    32
  0
VERTEX
  8
0
  5
2D1
 10
174.474
 20
155.000
 30
0.00000
  70
    32
  0
SEQEND
  8
0
  5
2D2
  0
LINE
  5
E1
  8
0
 10
11.0558345526805901
 20
155.0
 30
0.0
 11
174.4741654473193933
 21
155.0
 31
0.0
  0
POLYLINE
  8
0
  5
2D3
  66
     1
 10
0.00000
 20
0.00000
 30
0.00000
  70
     8
  0
VERTEX
  8
0
  5
2D4
 10
0.0300000
 20
140.725
 30
0.00000
  70
    32
  0
VERTEX
  8
0
  5
2D5
 10
0.0600315
 20
140.951
 30
0.00000
  70
    32
  0
VERTEX
  8
0
  5
2D6
 10
0.0896034
 20
141.176
 30
0.00000
  70
    32
  0
VERTEX
  8
0
  5
2D7
 10
0.118748
 20
141.398
 30
0.00000
  70
    32
  0
VERTEX
  8
0
  5
2D8
 10
0.147499
 20
141.618
 30
0.00000
  70
    32
  0
VERTEX
  8
0
  5
2D9
 10
0.175888
 20
141.836
 30
0.00000
  70
    32
  0
VERTEX
  8
0
  5
2DA
 10
0.203948
 20
142.052
 30
0.00000
  70
    32
  0
VERTEX
  8
0
  5
2DB
 10
0.231712
 20
142.266
 30
0.00000
  70
    32
  0
VERTEX
  8
0
  5
2DC
 10
0.259212
 20
142.477
 30
0.00000
  70
    32
  0
VERTEX
  8
0
  5
2DD
 10
0.286481
 20
142.687
 30
0.00000
  70
    32
  0
VERTEX
  8
0
  5
2DE
 10
0.313552
 20
142.895
 30
0.00000
  70
    32
  0
VERTEX
  8
0
  5
2DF
 10
0.340458
 20
143.100
 30
0.00000
  70
    32
  0
VERTEX
  8
0
  5
2E0
 10
0.367230
 20
143.304
 30
0.00000
  70
    32
  0
VERTEX
  8
0
  5
2E1
 10
0.393902
 20
143.505
 30
0.00000
  70
    32
  0
VERTEX
  8
0
  5
2E2
 10
0.420507
 20
143.704
 30
0.00000
  70
    32
  0
VERTEX
  8
0
  5
2E3
 10
0.447076
 20
143.902
 30
0.00000
  70
    32
  0
VERTEX
  8
0
  5
2E4
 10
0.473643
 20
144.097
 30
0.00000
  70
    32
  0
VERTEX
  8
0
  5
2E5
 10
0.500241
 20
144.290
 30
0.00000
  70
    32
  0
VERTEX
  8
0
  5
2E6
 10
0.526901
 20
144.481
 30
0.00000
  70
    32
  0
VERTEX
  8
0
  5
2E7
 10
0.553657
 20
144.671
 30
0.00000
  70
    32
  0
VERTEX
  8
0
  5
2E8
 10
0.580542
 20
144.858
 30
0.00000
  70
    32
  0
VERTEX
  8
0
  5
2E9
 10
0.607587
 20
145.043
 30
0.00000
  70
    32
  0
VERTEX
  8
0
  5
2EA
 10
0.634826
 20
145.226
 30
0.00000
  70
    32
  0
VERTEX
  8
0
  5
2EB
 10
0.662292
 20
145.408
 30
0.00000
  70
    32
  0
VERTEX
  8
0
  5
2EC
 10
0.690016
 20
145.587
 30
0.00000
  70
    32
  0
VERTEX
  8
0
  5
2ED
 10
0.718032
 20
145.764
 30
0.00000
  70
    32
  0
VERTEX
  8
0
  5
2EE
 10
0.746373
 20
145.940
 30
0.00000
  70
    32
  0
VERTEX
  8
0
  5
2EF
 10
0.775070
 20
146.113
 30
0.00000
  70
    32
  0
VERTEX
  8
0
  5
2F0
 10
0.804157
 20
146.285
 30
0.00000
  70
    32
  0
VERTEX
  8
0
  5
2F1
 10
0.833667
 20
146.454
 30
0.00000
  70
    32
  0
VERTEX
  8
0
  5
2F2
 10
0.863631
 20
146.622
 30
0.00000
  70
    32
  0
VERTEX
  8
0
  5
2F3
 10
0.894083
 20
146.788
 30
0.00000
  70
    32
  0
VERTEX
  8
0
  5
2F4
 10
0.925055
 20
146.952
 30
0.00000
  70
    32
  0
VERTEX
  8
0
  5
2F5
 10
0.956580
 20
147.113
 30
0.00000
  70
    32
  0
VERTEX
  8
0
  5
2F6
 10
0.988691
 20
147.274
 30
0.00000
  70
    32
  0
VERTEX
  8
0
  5
2F7
 10
1.02142
 20
147.432
 30
0.00000
  70
    32
  0
VERTEX
  8
0
  5
2F8
 10
1.05480
 20
147.588
 30
0.00000
  70
    32
  0
VERTEX
  8
0
  5
2F9
 10
1.08886
 20
147.743
 30
0.00000
  70
    32
  0
VERTEX
  8
0
  5
2FA
 10
1.12364
 20
147.895
 30
0.00000
  70
    32
  0
VERTEX
  8
0
  5
2FB
 10
1.15917
 20
148.046
 30
0.00000
  70
    32
  0
VERTEX
  8
0
  5
2FC
 10
1.19548
 20
148.195
 30
0.00000
  70
    32
  0
VERTEX
  8
0
  5
2FD
 10
1.23261
 20
148.342
 30
0.00000
  70
    32
  0
VERTEX
  8
0
  5
2FE
 10
1.27058
 20
148.487
 30
0.00000
  70
    32
  0
VERTEX
  8
0
  5
2FF
 10
1.30943
 20
148.631
 30
0.00000
  70
    32
  0
VERTEX
  8
0
  5
300
 10
1.34919
 20
148.772
 30
0.00000
  70
    32
  0
VERTEX
  8
0
  5
301
 10
1.38990
 20
148.912
 30
0.00000
  70
    32
  0
VERTEX
  8
0
  5
302
 10
1.43159
 20
149.050
 30
0.00000
  70
    32
  0
VERTEX
  8
0
  5
303
 10
1.47429
 20
149.187
 30
0.00000
  70
    32
  0
VERTEX
  8
0
  5
304
 10
1.51802
 20
149.321
 30
0.00000
  70
    32
  0
VERTEX
  8
0
  5
305
 10
1.56284
 20
149.454
 30
0.00000
  70
    32
  0
VERTEX
  8
0
  5
306
 10
1.60876
 20
149.585
 30
0.00000
  70
    32
  0
VERTEX
  8
0
  5
307
 10
1.65583
 20
149.714
 30
0.00000
  70
    32
  0
VERTEX
  8
0
  5
308
 10
1.70406
 20
149.841
 30
0.00000
  70
    32
  0
VERTEX
  8
0
  5
309
 10
1.75351
 20
149.967
 30
0.00000
  70
    32
  0
VERTEX
  8
0
  5
30A
 10
1.80419
 20
150.091
 30
0.00000
  70
    32
  0
VERTEX
  8
0
  5
30B
 10
1.85614
 20
150.213
 30
0.00000
  70
    32
  0
VERTEX
  8
0
  5
30C
 10
1.90940
 20
150.334
 30
0.00000
  70
    32
  0
VERTEX
  8
0
  5
30D
 10
1.96400
 20
150.453
 30
0.00000
  70
    32
  0
VERTEX
  8
0
  5
30E
 10
2.01996
 20
150.570
 30
0.00000
  70
    32
  0
VERTEX
  8
0
  5
30F
 10
2.07733
 20
150.685
 30
0.00000
  70
    32
  0
VERTEX
  8
0
  5
310
 10
2.13613
 20
150.799
 30
0.00000
  70
    32
  0
VERTEX
  8
0
  5
311
 10
2.19640
 20
150.911
 30
0.00000
  70
    32
  0
VERTEX
  8
0
  5
312
 10
2.25817
 20
151.022
 30
0.00000
  70
    32
  0
VERTEX
  8
0
  5
313
 10
2.32147
 20
151.130
 30
0.00000
  70
    32
  0
VERTEX
  8
0
  5
314
 10
2.38634
 20
151.238
 30
0.00000
  70
    32
  0
VERTEX
  8
0
  5
315
 10
2.45281
 20
151.343
 30
0.00000
  70
    32
  0
VERTEX
  8
0
  5
316
 10
2.52090
 20
151.447
 30
0.00000
  70
    32
  0
VERTEX
  8
0
  5
317
 10
2.59066
 20
151.549
 30
0.00000
  70
    32
  0
VERTEX
  8
0
  5
318
 10
2.66212
 20
151.650
 30
0.00000
  70
    32
  0
VERTEX
  8
0
  5
319
 10
2.73531
 20
151.749
 30
0.00000
  70
    32
  0
VERTEX
  8
0
  5
31A
 10
2.81025
 20
151.846
 30
0.00000
  70
    32
  0
VERTEX
  8
0
  5
31B
 10
2.88699
 20
151.942
 30
0.00000
  70
    32
  0
VERTEX
  8
0
  5
31C
 10
2.96556
 20
152.036
 30
0.00000
  70
    32
  0
VERTEX
  8
0
  5
31D
 10
3.04599
 20
152.129
 30
0.00000
  70
    32
  0
VERTEX
  8
0
  5
31E
 10
3.12831
 20
152.220
 30
0.00000
  70
    32
  0
VERTEX
  8
0
  5
31F
 10
3.21255
 20
152.309
 30
0.00000
  70
    32
  0
VERTEX
  8
0
  5
320
 10
3.29876
 20
152.397
 30
0.00000
  70
    32
  0
VERTEX
  8
0
  5
321
 10
3.38695
 20
152.483
 30
0.00000
  70
    32
  0
VERTEX
  8
0
  5
322
 10
3.47716
 20
152.568
 30
0.00000
  70
    32
  0
VERTEX
  8
0
  5
323
 10
3.56943
 20
152.652
 30
0.00000
  70
    32
  0
VERTEX
  8
0
  5
324
 10
3.66379
 20
152.733
 30
0.00000
  70
    32
  0
VERTEX
  8
0
  5
325
 10
3.76027
 20
152.814
 30
0.00000
  70
    32
  0
VERTEX
  8
0
  5
326
 10
3.85890
 20
152.892
 30
0.00000
  70
    32
  0
VERTEX
  8
0
  5
327
 10
3.95972
 20
152.970
 30
0.00000
  70
    32
  0
VERTEX
  8
0
  5
328
 10
4.06276
 20
153.045
 30
0.00000
  70
    32
  0
VERTEX
  8
0
  5
329
 10
4.16805
 20
153.120
 30
0.00000
  70
    32
  0
VERTEX
  8
0
  5
32A
 10
4.27562
 20
153.192
 30
0.00000
  70
    32
  0
VERTEX
  8
0
  5
32B
 10
4.38551
 20
153.264
 30
0.00000
  70
    32
  0
VERTEX
  8
0
  5
32C
 10
4.49775
 20
153.333
 30
0.00000
  70
    32
  0
VERTEX
  8
0
  5
32D
 10
4.61237
 20
153.402
 30
0.00000
  70
    32
  0
VERTEX
  8
0
  5
32E
 10
4.72941
 20
153.469
 30
0.00000
  70
    32
  0
VERTEX
  8
0
  5
32F
 10
4.84889
 20
153.534
 30
0.00000
  70
    32
  0
VERTEX
  8
0
  5
330
 10
4.97086
 20
153.598
 30
0.00000
  70
    32
  0
VERTEX
  8
0
  5
331
 10
5.09533
 20
153.661
 30
0.00000
  70
    32
  0
VERTEX
  8
0
  5
332
 10
5.22235
 20
153.722
 30
0.00000
  70
    32
  0
VERTEX
  8
0
  5
333
 10
5.35195
 20
153.782
 30
0.00000
  70
    32
  0
VERTEX
  8
0
  5
334
 10
5.48416
 20
153.840
 30
0.00000
  70
    32
  0
VERTEX
  8
0
  5
335
 10
5.61902
 20
153.898
 30
0.00000
  70
    32
  0
VERTEX
  8
0
  5
336
 10
5.75655
 20
153.953
 30
0.00000
  70
    32
  0
VERTEX
  8
0
  5
337
 10
5.89679
 20
154.007
 30
0.00000
  70
    32
  0
VERTEX
  8
0
  5
338
 10
6.03977
 20
154.060
 30
0.00000
  70
    32
  0
VERTEX
  8
0
  5
339
 10
6.18552
 20
154.112
 30
0.00000
  70
    32
  0
VERTEX
  8
0
  5
33A
 10
6.33408
 20
154.162
 30
0.00000
  70
    32
  0
VERTEX
  8
0
  5
33B
 10
6.48548
 20
154.211
 30
0.00000
  70
    32
  0
VERTEX
  8
0
  5
33C
 10
6.63976
 20
154.258
 30
0.00000
  70
    32
  0
VERTEX
  8
0
  5
33D
 10
6.79693
 20
154.305
 30
0.00000
  70
    32
  0
VERTEX
  8
0
  5
33E
 10
6.95705
 20
154.349
 30
0.00000
  70
    32
  0
VERTEX
  8
0
  5
33F
 10
7.12013
 20
154.393
 30
0.00000
  70
    32
  0
VERTEX
  8
0
  5
340
 10
7.28622
 20
154.435
 30
0.00000
  70
    32
  0
VERTEX
  8
0
  5
341
 10
7.45534
 20
154.476
 30
0.00000
  70
    32
  0
VERTEX
  8
0
  5
342
 10
7.62753
 20
154.516
 30
0.00000
  70
    32
  0
VERTEX
  8
0
  5
343
 10
7.80282
 20
154.554
 30
0.00000
  70
    32
  0
VERTEX
  8
0
  5
344
 10
7.98125
 20
154.591
 30
0.00000
  70
    32
  0
VERTEX
  8
0
  5
345
 10
8.16284
 20
154.627
 30
0.00000
  70
    32
  0
VERTEX
  8
0
  5
346
 10
8.34763
 20
154.662
 30
0.00000
  70
    32
  0
VERTEX
  8
0
  5
347
 10
8.53565
 20
154.695
 30
0.00000
  70
    32
  0
VERTEX
  8
0
  5
348
 10
8.72694
 20
154.727
 30
0.00000
  70
    32
  0
VERTEX
  8
0
  5
349
 10
8.92152
 20
154.758
 30
0.00000
  70
    32
  0
VERTEX
  8
0
  5
34A
 10
9.11943
 20
154.787
 30
0.00000
  70
    32
  0
VERTEX
  8
0
  5
34B
 10
9.32070
 20
154.816
 30
0.00000
  70
    32
  0
VERTEX
  8
0
  5
34C
 10
9.52537
 20
154.843
 30
0.00000
  70
    32
  0
VERTEX
  8
0
  5
34D
 10
9.73346
 20
154.869
 30
0.00000
  70
    32
  0
VERTEX
  8
0
  5
34E
 10
9.94502
 20
154.894
 30
0.00000
  70
    32
  0
VERTEX
  8
0
  5
34F
 10
10.1601
 20
154.917
 30
0.00000
  70
    32
  0
VERTEX
  8
0
  5
350
 10
10.3786
 20
154.940
 30
0.00000
  70
    32
  0
VERTEX
  8
0
  5
351
 10
10.6008
 20
154.961
 30
0.00000
  70
    32
  0
VERTEX
  8
0
  5
352
 10
10.8265
 20
154.981
 30
0.00000
  70
    32
  0
VERTEX
  8
0
  5
353
 10
11.0558
 20
155.000
 30
0.00000
  70
    32
  0
SEQEND
  8
0
  5
354
  0
CIRCLE
  5
E3
  8
0
 10
9.4099999999980355
 20
79.7500000000008527
 30
0.0
 40
1.5000000000000051
  0
CIRCLE
  5
E4
  8
0
 10
9.4099999999979982
 20
52.2499999999994316
 30
0.0
 40
1.500000000000008
  0
CIRCLE
  5
E5
  8
0
 10
21.0
 20
48.0
 30
0.0
 40
1.4999999999999969
  0
CIRCLE
  5
E6
  8
0
 10
21.0
 20
18.0
 30
0.0
 40
1.5
  0
CIRCLE
  5
E7
  8
0
 10
164.5300000000000011
 20
48.0
 30
0.0
 40
1.499999999999992
  0
CIRCLE
  5
E8
  8
0
 10
164.5300000000000011
 20
18.0
 30
0.0
 40
1.5000000000000131
  0
CIRCLE
  5
E9
  8
0
 10
6.9999999999999938
 20
18.0
 30
0.0
 40
1.5
  0
CIRCLE
  5
EA
  8
0
 10
178.5299999999998875
 20
18.0
 30
0.0
 40
1.5000000000000031
  0
CIRCLE
  5
EB
  8
0
 10
178.5300000000000011
 20
114.0
 30
0.0
 40
1.500000000000008
  0
CIRCLE
  5
EC
  8
0
 10
21.0
 20
84.0000000000000284
 30
0.0
 40
1.499999999999998
  0
CIRCLE
  5
ED
  8
0
 10
21.0
 20
114.0
 30
0.0
 40
1.499999999999998
  0
CIRCLE
  5
EE
  8
0
 10
164.5300000000000011
 20
84.0000000000000284
 30
0.0
 40
1.500000000000014
  0
CIRCLE
  5
EF
  8
0
 10
6.999999999999992
 20
114.0
 30
0.0
 40
1.5
  0
CIRCLE
  5
F0
  8
0
 10
164.5300000000000011
 20
114.0
 30
0.0
 40
1.500000000000002
  0
CIRCLE
  5
F1
  8
0
 10
174.5300000000000011
 20
49.7699999999999818
 30
0.0
 40
1.6000000000000121
  0
CIRCLE
  5
F2
  8
0
 10
174.5300000000000011
 20
82.2299999999999756
 30
0.0
 40
1.600000000000001
  0
ENDSEC
  0
EOF
